<svg id="res-cruda" xmlns="http://www.w3.org/2000/svg" width="61.547" height="50.529" viewBox="0 0 61.547 50.529">
  <g id="Grupo_1108068" data-name="Grupo 1108068" transform="translate(0.798 16.746)">
    <path id="Trazado_898110" data-name="Trazado 898110" d="M16,187.7v8.7a6.245,6.245,0,0,0,6.246,6.246A19.316,19.316,0,0,1,34.5,207.03l10.529,8.642a19.012,19.012,0,0,0,31.074-14.7v-5.41" transform="translate(-16 -187.7)" fill="#ee7067"/>
  </g>
  <g id="Grupo_1108069" data-name="Grupo 1108069" transform="translate(43.316 22.31)">
    <path id="Trazado_898111" data-name="Trazado 898111" d="M373.153,239.852v-5.41l-17.583-2.3.113.046a4.172,4.172,0,0,1,2.574,3.854v22.375A19.019,19.019,0,0,0,373.153,239.852Z" transform="translate(-355.57 -232.14)" fill="#cd5252"/>
  </g>
  <g id="Grupo_1108070" data-name="Grupo 1108070" transform="translate(0.798 1.562)">
    <path id="Trazado_898112" data-name="Trazado 898112" d="M16,81.614a6.245,6.245,0,0,0,6.246,6.246A19.316,19.316,0,0,1,34.5,92.245l10.529,8.642A19.012,19.012,0,0,0,76.1,86.191a18.673,18.673,0,0,0-8.5-15.663,25.389,25.389,0,0,0-13.831-4.1H45.944A42.13,42.13,0,0,0,18.121,76.924,6.246,6.246,0,0,0,16,81.614" transform="translate(-16 -66.43)" fill="#e4e8eb"/>
  </g>
  <g id="Grupo_1108071" data-name="Grupo 1108071" transform="translate(33.773 1.562)">
    <path id="Trazado_898113" data-name="Trazado 898113" d="M306.486,86.191a18.677,18.677,0,0,0-8.5-15.664,25.4,25.4,0,0,0-13.831-4.1H279.36V80.436a4.172,4.172,0,0,0,2.574,3.854l7.081,2.935a4.172,4.172,0,0,1,2.574,3.854v13.676A19.018,19.018,0,0,0,306.486,86.191Z" transform="translate(-279.36 -66.43)" fill="#cad0d7"/>
  </g>
  <g id="Grupo_1108072" data-name="Grupo 1108072" transform="translate(5.181 5.944)">
    <path id="Trazado_898114" data-name="Trazado 898114" d="M102.345,116.807a14.244,14.244,0,0,0-6.508-11.988,20.965,20.965,0,0,0-11.444-3.389H76.571a37.729,37.729,0,0,0-24.928,9.4,1.863,1.863,0,0,0,1.231,3.262,23.756,23.756,0,0,1,15.033,5.379l10.529,8.642a14.63,14.63,0,0,0,23.91-11.308" transform="translate(-51.01 -101.43)" fill="#ee7067"/>
  </g>
  <g id="Grupo_1108073" data-name="Grupo 1108073" transform="translate(33.773 5.944)">
    <path id="Trazado_898115" data-name="Trazado 898115" d="M281.934,114.908l7.081,2.935a4.172,4.172,0,0,1,2.574,3.854v9.149A14.655,14.655,0,0,0,302.1,116.807a14.244,14.244,0,0,0-6.508-11.988,20.965,20.965,0,0,0-11.444-3.389H279.36v9.625a4.17,4.17,0,0,0,2.574,3.853Z" transform="translate(-279.36 -101.43)" fill="#cd5252"/>
  </g>
  <g id="Grupo_1108074" data-name="Grupo 1108074" transform="translate(15.743 11.855)">
    <path id="Trazado_898116" data-name="Trazado 898116" d="M136.5,148.791a.849.849,0,0,1-1.082.543l-.056-.106a.851.851,0,0,1,1.086-.546S136.5,148.791,136.5,148.791Z" transform="translate(-135.36 -148.636)" fill="#fff"/>
  </g>
  <g id="Grupo_1108075" data-name="Grupo 1108075" transform="translate(17.552 8.56)">
    <path id="Trazado_898117" data-name="Trazado 898117" d="M163.434,122.522a49.88,49.88,0,0,0-13.574,2.915l-.05-.11a24.9,24.9,0,0,1,9.221-2.856,22.507,22.507,0,0,1,4.4-.07Z" transform="translate(-149.81 -122.323)" fill="#fff"/>
  </g>
  <g id="Grupo_1108076" data-name="Grupo 1108076" transform="translate(2.913 26.501)">
    <path id="Trazado_898118" data-name="Trazado 898118" d="M32.993,265.61a6.453,6.453,0,0,0,4.543,2.457,13.806,13.806,0,0,1,4.829.82l-.03.118c-.864-.109-1.718-.208-2.573-.259-.617-.038-1.3-.053-1.926-.046l-.342-.01-.341-.033a5.473,5.473,0,0,1-4.263-2.981Z" transform="translate(-32.89 -265.61)" fill="#fff"/>
  </g>
  <g id="Grupo_1108077" data-name="Grupo 1108077" transform="translate(40.254 19.566)">
    <circle id="Elipse_11715" data-name="Elipse 11715" cx="5.046" cy="5.046" r="5.046" fill="#e4e8eb"/>
  </g>
  <g id="Grupo_1108078" data-name="Grupo 1108078" transform="translate(41.337 19.567)">
    <path id="Trazado_898119" data-name="Trazado 898119" d="M343.733,210.23a5.034,5.034,0,0,0-3.963,1.924l2.09.866a4.172,4.172,0,0,1,2.574,3.854v3.4a5.045,5.045,0,0,0-.7-10.042Z" transform="translate(-339.77 -210.23)" fill="#cad0d7"/>
  </g>
  <path id="Trazado_898120" data-name="Trazado 898120" d="M71.167,84.442c-.074-1.941-.2-3.942-.337-5.874a.294.294,0,0,0-.03-.109,17.437,17.437,0,0,0,.03-3.173s0-.005,0-.008a18.62,18.62,0,0,0-6.6-15.561,25.362,25.362,0,0,0-13.885-5.636c-.821-.078-1.708-.105-2.517-.111-1.584-.006-5.657-.023-7.192-.009-.566,0-1.287.033-1.854.041-.719.019-1.763.115-2.478.177a40.832,40.832,0,0,0-16.892,5.633c-.6.363-1.508.937-2.065,1.339-.278.2-.745.5-1,.71-.316.239-1.167.893-1.455,1.127-.441.383-.967.806-1.4,1.191-.269.258-1.084,1.014-1.335,1.257a6.717,6.717,0,0,0-1.735,2.743,6.518,6.518,0,0,0-.3,2.515s0,.005,0,.008c-.073.977-.126,1.953-.19,2.93-.069,1.362-.214,3.78-.268,5.126l-.018.366-.009.183a7.133,7.133,0,0,0,5.94,7.384,9.514,9.514,0,0,0,1.251.128,18.47,18.47,0,0,1,9.888,3.347c.46.327.907.681,1.342,1.042,3.341,2.8,7.639,6.442,11.03,9.167a20.267,20.267,0,0,0,18,3.267,19.872,19.872,0,0,0,12.91-12.077,18.9,18.9,0,0,0,1.173-7.122ZM67.93,91.434l-2.048-2.048A18.878,18.878,0,0,0,67.2,87.777l1.6,1.6A18.074,18.074,0,0,1,67.93,91.434Zm-1.436,2.38-2.566-2.566a19.4,19.4,0,0,0,1.525-1.407l2.172,2.172A18.756,18.756,0,0,1,66.494,93.815ZM64.763,95.9,61.7,92.842a19.676,19.676,0,0,0,1.732-1.2l2.682,2.682A18.52,18.52,0,0,1,64.763,95.9Zm-2.011,1.807-3.558-3.558a19.634,19.634,0,0,0,1.956-.977l3.173,3.173a18.653,18.653,0,0,1-1.57,1.362Zm-2.3,1.518-4.1-4.1a19.744,19.744,0,0,0,2.212-.72l3.679,3.679A18.6,18.6,0,0,1,60.454,99.225Zm-2.619,1.2-1.891-1.891V95.6l3.933,3.933A18.366,18.366,0,0,1,57.834,100.423Zm9.738-13.165a19.091,19.091,0,0,0,1.1-1.828l.939.939a19.328,19.328,0,0,1-.583,2.349Zm2.294-2.846q-.045.6-.129,1.2l-.764-.764a19.2,19.2,0,0,0,1.019-2.529c-.039.709-.08,1.411-.126,2.1Zm-56.32-18.29.945-.7c.592-.4,1.339-.94,1.952-1.311.591-.372,1.39-.88,2.007-1.211.969-.561,2.091-1.148,3.109-1.615.8-.4,1.843-.82,2.668-1.162.309-.118,1.328-.491,1.634-.606a44.442,44.442,0,0,1,4.455-1.283c.866-.215,1.955-.419,2.835-.575.358-.051,1.35-.193,1.717-.248l1.724-.179c.389-.034,1.326-.079,1.729-.105.336-.026.813-.014,1.154-.03s.84-.024,1.164-.018c2.412.036,6.492-.051,8.9.018a25.092,25.092,0,0,1,11.784,3.594,18.855,18.855,0,0,1,8.9,14.592s0,.005,0,.008a21.408,21.408,0,0,1-.352,2.41,19.065,19.065,0,0,1-5.711,10.227A18.17,18.17,0,0,1,55.946,92.3V90.265A14.792,14.792,0,0,0,57.6,89.62a15.1,15.1,0,0,0,8.85-14.33.03.03,0,0,1,0-.01A14.55,14.55,0,0,0,61.868,64a20.948,20.948,0,0,0-12.443-5.218c-1.849-.12-5.228-.121-7.107-.177-1.188-.018-2.926-.059-4.1,0-1.007.03-2.111.15-3.119.25a38.631,38.631,0,0,0-11.034,3.086,38.127,38.127,0,0,0-8.857,5.527l-.811.681a3.423,3.423,0,0,0,2.313,5.979l.47.01.47.01.468.03.47.03a22.674,22.674,0,0,1,11.7,4.513c3.177,2.514,7.007,5.624,10.192,8.137A19.345,19.345,0,0,0,44,89.268a15.683,15.683,0,0,0,11.322,1.183v1.985a17.93,17.93,0,0,1-10.478-1.029,18.774,18.774,0,0,1-4.877-3.023c-1.6-1.3-3.237-2.619-4.843-3.905-1.953-1.546-3.919-3.14-5.9-4.648a19.971,19.971,0,0,0-12.683-3.8l-.267,0h-.134L16,76.027a5.77,5.77,0,0,1-5.266-5.32.054.054,0,0,0,0-.006,6.028,6.028,0,0,1,2.81-4.578ZM52.22,76.306l.717.3a3.848,3.848,0,0,1,2.382,3.565v2.315c-.129,0-.258-.01-.388-.025a3.893,3.893,0,0,1-3.116-2.225A3.8,3.8,0,0,1,52.22,76.306Zm.448-.492a3.77,3.77,0,0,1,1.541-.859,4.474,4.474,0,0,1,5.464,3.615,4.478,4.478,0,0,1-3.729,3.877V80.169a4.474,4.474,0,0,0-2.767-4.143Zm4.565,8.315a5.587,5.587,0,0,0,3.046-5.561,5.574,5.574,0,0,0-5.35-6.338,6.154,6.154,0,0,0-5.208,2.361L46.1,73.09a3.848,3.848,0,0,1-2.382-3.565v-6.51a.313.313,0,0,0-.626,0v6.51a4.474,4.474,0,0,0,2.767,4.143l3.49,1.446a6.233,6.233,0,0,0,5.971,9.617v3.626a13.6,13.6,0,0,1-10.133-1.307,13.774,13.774,0,0,1-2.26-1.593c-.473-.4-1.819-1.55-2.3-1.955-2.216-1.873-5.485-4.623-7.7-6.477a25.01,25.01,0,0,0-15.674-6.011L16.71,71h-.034a.317.317,0,0,1-.215-.093.3.3,0,0,1,.01-.434l.729-.615a37.039,37.039,0,0,1,22.134-8.592c1.817-.076,5.152-.105,7.006-.15,1.122-.02,2.806-.079,3.905.021a19.674,19.674,0,0,1,10.569,4.047A14.025,14.025,0,0,1,65.84,75.277s0,.006,0,.01a14.413,14.413,0,0,1-4.948,10.156,13.456,13.456,0,0,1-4.951,2.738V84.614a5.7,5.7,0,0,0,1.291-.485Zm-5.6,17.36a17.881,17.881,0,0,1-11.18-4.021l-1.134-.927c-2.531-2.072-6.562-5.32-9.118-7.36a22.61,22.61,0,0,0-2.538-1.8,20.406,20.406,0,0,0-11.148-2.9,5.329,5.329,0,0,1-5.281-5c-.073-1.554-.167-3.327-.268-5.064a6.443,6.443,0,0,0,.892,1.22,6.92,6.92,0,0,0,4.277,2.177l.354.034.178.016a18.876,18.876,0,0,1,11.345,4.5q4.479,3.846,9.025,7.629a28.979,28.979,0,0,0,4.2,3.108,20.054,20.054,0,0,0,14.086,2.271v5.765a17.374,17.374,0,0,1-3.69.357Zm4.315-.5V99.416l1.231,1.231Q56.568,100.844,55.943,100.994Z" transform="translate(-9.629 -53.957)"/>
</svg>
