<svg xmlns="http://www.w3.org/2000/svg" xmlns:xlink="http://www.w3.org/1999/xlink" width="131" height="133" viewBox="0 0 131 133">
  <defs>
    <filter id="Rect치ngulo_402650" x="0" y="0" width="131" height="133" filterUnits="userSpaceOnUse">
      <feOffset dy="3" input="SourceAlpha"/>
      <feGaussianBlur stdDeviation="3" result="blur"/>
      <feFlood flood-opacity="0.161"/>
      <feComposite operator="in" in2="blur"/>
      <feComposite in="SourceGraphic"/>
    </filter>
  </defs>
  <g id="Grupo_1108102" data-name="Grupo 1108102" transform="translate(-610.051 -3240.826)">
    <g transform="matrix(1, 0, 0, 1, 610.05, 3240.83)" filter="url(#Rect치ngulo_402650)">
      <g id="Rect치ngulo_402650-2" data-name="Rect치ngulo 402650" transform="translate(9 6)" fill="#94dab2" stroke="#fff" stroke-width="3">
        <rect width="113" height="115" rx="23" stroke="none"/>
        <rect x="1.5" y="1.5" width="110" height="112" rx="21.5" fill="none"/>
      </g>
    </g>
    <g id="cordero" transform="translate(631.646 3260.975)">
      <g id="Grupo_1108100" data-name="Grupo 1108100" transform="translate(1.255 1.889)">
        <g id="Grupo_1108099" data-name="Grupo 1108099">
          <path id="Trazado_898142" data-name="Trazado 898142" d="M335.335,21.776s12.129-8.921,25.319-13.583a1.173,1.173,0,0,1,1.394.494l1.391,2.283a1.171,1.171,0,0,1-.485,1.661c-3.768,1.846-15.868,8.061-23.346,15.2l-4.273-1.6Z" transform="translate(-280.476 -8.125)" fill="#d98a54"/>
          <path id="Trazado_898143" data-name="Trazado 898143" d="M56.558,112.671c-1.866,6.86-.9,14.164-1.859,21.209a40.641,40.641,0,0,1-3.478,11.795,16.672,16.672,0,0,1-3.84,5.57,19.147,19.147,0,0,1-7.323,3.514c-5.123,1.539-10.514,2.708-15.8,1.875C19.016,155.806,7.5,155.39,7.5,150.08a36.25,36.25,0,0,1,3.293-14.992c4.829-10.51,12.97-18.257,21.209-26.374C44.092,96.8,59.676,87.686,59.676,87.686a2.274,2.274,0,0,1,3.254.535L64.8,90.978l1.556,2.313A2.275,2.275,0,0,1,66.232,96c-2.361,2.89-7.9,10.149-9.674,16.669Z" transform="translate(-7.5 -73.988)" fill="#ff959b"/>
          <path id="Trazado_898144" data-name="Trazado 898144" d="M29.281,156.634c-5.245-.827-16.761-1.243-16.761-6.553a36.25,36.25,0,0,1,3.293-14.992c4.829-10.51,12.97-18.257,21.209-26.374C46.853,99.029,58.994,91.191,63.188,88.6l-.258-.379a2.274,2.274,0,0,0-3.254-.535S44.092,96.8,32,108.715c-8.239,8.118-16.38,15.864-21.209,26.374A36.249,36.249,0,0,0,7.5,150.08c0,5.31,11.516,5.726,16.761,6.553a25.214,25.214,0,0,0,6.229.156q-.605-.061-1.209-.156Z" transform="translate(-7.5 -73.989)" fill="#fc8086"/>
          <path id="Trazado_898145" data-name="Trazado 898145" d="M236.248,153.529c-.333-2.521-1.59-2.839-1.889-4.028a3.811,3.811,0,0,1,1.689-3.823q2.573-1.97,5.222-3.838c1.076-.76,2.157-1.526,3.247-2.263.694-.47.883-.833,1.451.037,1.056,1.616-.013,3.116-.845,4.471a52.433,52.433,0,0,0-2.74,5.041,21.9,21.9,0,0,0-1.52,4.2c-.28,1.162-.288,2.874-1.639,3.361C237.142,157.442,236.343,154.252,236.248,153.529Z" transform="translate(-196.324 -117.172)" fill="#e94442"/>
          <path id="Trazado_898146" data-name="Trazado 898146" d="M235.443,151.237c.894-.923,8.781-6.485,9.591-7.005.927-1.521,2-2.988.934-4.616-.569-.869-.757-.506-1.451-.037-1.793,1.213-5.421,3.768-8.469,6.1a3.811,3.811,0,0,0-1.689,3.823A6.051,6.051,0,0,0,235.443,151.237Z" transform="translate(-196.323 -117.173)" fill="#cf3636"/>
          <path id="Trazado_898147" data-name="Trazado 898147" d="M54.63,256.526a18.3,18.3,0,0,1-2.839-.213c-.915-.144-1.954-.271-3.053-.406-2.07-.253-4.416-.54-6.447-1q-.321-.073-.6-.146a2.8,2.8,0,0,1-2.085-3.016,31.147,31.147,0,0,1,2.649-9.642c4.219-9.182,11.423-16.269,19.05-23.773l1.08-1.063c.961-.947,2.677-3.456,3.834-3.972,1.929-.861,3.3,1.829,3.909,3.521.424,1.186.5,2.469.828,3.685.846,3.089,3.169,5.4,4.579,8.2,1.5,2.981,1.152,6.092.716,9.315a35.3,35.3,0,0,1-3.03,10.278,11.581,11.581,0,0,1-2.563,3.87,15.14,15.14,0,0,1-5.378,2.435A38.456,38.456,0,0,1,54.63,256.526Z" transform="translate(-34.217 -178.821)" fill="#e94442"/>
          <path id="Trazado_898148" data-name="Trazado 898148" d="M43.663,252.7c1.437-13.546,11.993-23.867,21.7-33.415l1.08-1.063c.713-.7,1.841-2.264,2.848-3.234-.73-1.25-1.777-2.277-3.074-1.7-1.157.516-2.873,3.025-3.834,3.972l-1.08,1.063c-9.735,9.578-20.263,19.879-21.7,33.415a2.8,2.8,0,0,0,2.085,3.016q.283.073.6.146c.864.2,1.786.363,2.719.507A2.808,2.808,0,0,1,43.663,252.7Z" transform="translate(-34.217 -178.822)" fill="#cf3636"/>
        </g>
        <path id="Trazado_898149" data-name="Trazado 898149" d="M159.745,271.688a14.977,14.977,0,0,1,2.69-1.964,2.924,2.924,0,0,1,.881-.358,2.187,2.187,0,0,1,2.01.91,6.387,6.387,0,0,1,.946,2.1,8.821,8.821,0,0,0,2.118,3.665,5.822,5.822,0,0,1,1.7,2.118,2.512,2.512,0,0,1-1.714,2.927,3.784,3.784,0,0,1-3.5-.865c-1.694-1.436-3.252-3.028-5.326-3.915-.572-.245-.973-.246-1.282-.8a2.469,2.469,0,0,1-.236-1.495c.157-1.1.927-1.634,1.693-2.312Z" transform="translate(-132.825 -225.629)" fill="#ff959b"/>
        <path id="Trazado_898150" data-name="Trazado 898150" d="M164.577,276.307c-.572-.245-.973-.246-1.282-.8a2.469,2.469,0,0,1-.236-1.495c.157-1.1.927-1.634,1.693-2.312l.014-.012c.314-.278.628-.544.949-.8a3.777,3.777,0,0,0-.389-.617,2.188,2.188,0,0,0-2.01-.91,2.925,2.925,0,0,0-.881.358,14.972,14.972,0,0,0-2.69,1.964l-.014.012c-.767.678-1.536,1.211-1.693,2.312a2.469,2.469,0,0,0,.236,1.495c.309.554.71.556,1.282.8,2.074.887,3.632,2.479,5.326,3.915a3.785,3.785,0,0,0,3.5.865,2.673,2.673,0,0,0,1.348-1.014A20.789,20.789,0,0,0,164.577,276.307Z" transform="translate(-132.826 -225.628)" fill="#fc8086"/>
      </g>
      <g id="Grupo_1108101" data-name="Grupo 1108101" transform="translate(0 0.635)">
        <path id="Trazado_898151" data-name="Trazado 898151" d="M85.29,4.08,83.9,1.8A2.44,2.44,0,0,0,81.016.773C69.343,4.9,58.673,12.181,56,14.078a3.533,3.533,0,0,0-3.259.46A151.671,151.671,0,0,0,23.8,36.781C16.933,43.536,10.447,49.917,5.717,58.029a1.255,1.255,0,1,0,2.169,1.264c4.829-8.283,11.784-14.929,18.752-21.784C38.471,25.85,53.91,16.76,54.065,16.67a1.075,1.075,0,0,1,1.312-.115c.255.186,3.683,5.318,3.7,5.337a1.015,1.015,0,0,1-.058,1.215C56.648,26,50.943,33.474,49.1,40.242c-2.9,10.643.8,19.889-5.261,32.8-2.435,5.187-4.636,6.687-10.388,8.415-4.577,1.375-9.967,2.668-15.241,1.837-4.148-.655-15.7-1.274-15.7-5.314A35.047,35.047,0,0,1,5.452,64.04a1.255,1.255,0,0,0-2.3-1.008A37.578,37.578,0,0,0,0,77.981c0,5.712,9.323,6.725,14.989,7.418,4.935.6,8.485,1.677,19.186-1.537,6.371-1.914,9.166-3.847,11.938-9.753,6.264-13.344,2.682-23.176,5.411-33.208,1.715-6.3,7.169-13.432,9.435-16.2a3.516,3.516,0,0,0,.778-2.645,63.313,63.313,0,0,1,6.886-5.432,1.255,1.255,0,1,0-1.43-2.063,68.084,68.084,0,0,0-6.583,5.126l-2.647-3.912C61.222,13.512,71.219,6.91,81.791,3.161L83.1,5.308c-2.207,1.084-6.531,3.3-11.261,6.217a1.255,1.255,0,0,0,1.318,2.136c4.7-2.9,8.991-5.092,11.131-6.14a2.427,2.427,0,0,0,1-3.441Z" transform="translate(0 -0.635)"/>
        <path id="Trazado_898152" data-name="Trazado 898152" d="M233.423,151.637c2.035-.735,2.105-2.891,2.433-4.248.872-3.623,3.177-7.238,4.265-9.132.835-1.346,2.1-3.379.669-5.562a1.822,1.822,0,0,0-2.964-.561c-1.274.934-4.277,2.877-8.769,6.315a5.022,5.022,0,0,0-2.143,5.125c.424,1.686,1.567,1.656,1.861,3.886C229.138,150.078,230.9,152.547,233.423,151.637Zm-2.841-11.194c2.685-2.055,6.289-4.618,8.293-5.979.36,1.244-1.294,2.467-3.856,7.9-2.289,4.852-1.581,6.6-2.45,6.917-.194.07-.257.032-.311,0a3.777,3.777,0,0,1-1-2.143c-.364-2.762-1.747-3.5-1.916-4.17A2.645,2.645,0,0,1,230.582,140.443Z" transform="translate(-188.84 -109.686)"/>
        <path id="Trazado_898153" data-name="Trazado 898153" d="M59.461,205.826c-1.524.68-3.232,3.267-4.2,4.224-10.28,10.114-21.618,20.832-23.146,35.24a4.08,4.08,0,0,0,3.021,4.364c3.252.835,7.468,1.146,10.219,1.58,4.626.729,9.572-.412,14.041-1.755,5.21-1.565,6.694-2.665,8.716-6.973a36.554,36.554,0,0,0,3.138-10.643,21.159,21.159,0,0,0,.1-7.384,1.255,1.255,0,0,0-2.454.527,18.892,18.892,0,0,1-.129,6.521,34.047,34.047,0,0,1-2.923,9.913c-1.654,3.523-2.513,4.237-7.167,5.636-4.078,1.225-8.74,2.339-12.928,1.68-2.8-.441-6.924-.747-9.987-1.532a1.537,1.537,0,0,1-1.148-1.668c1.443-13.611,12.672-24.134,22.411-33.716,1.182-1.165,3.1-4.066,3.864-3.737a5.264,5.264,0,0,1,1.816,2.814c.375,1.048.451,2.32.8,3.594a20.619,20.619,0,0,0,3.193,5.99,1.255,1.255,0,0,0,2.087-1.395,18.8,18.8,0,0,1-2.859-5.258c-.312-1.138-.388-2.463-.857-3.776-1.009-2.822-2.969-5.42-5.6-4.245Z" transform="translate(-26.72 -171.249)"/>
        <path id="Trazado_898154" data-name="Trazado 898154" d="M161.226,265.759a7.516,7.516,0,0,0-1.157-2.505,3.4,3.4,0,0,0-3.219-1.371c-1.433.258-3.4,1.945-4.454,2.856a4.5,4.5,0,0,0-1.845,2.85,3.705,3.705,0,0,0,.382,2.283,2.976,2.976,0,0,0,1.885,1.343c1.866.8,3.326,2.293,5.008,3.719a5.026,5.026,0,0,0,4.691,1.1,3.736,3.736,0,0,0,2.532-4.487C164.381,269.353,162.34,269.355,161.226,265.759Zm.524,7.887c-2.217.712-3.806-2.968-7.945-4.738-.278-.119-.561-.205-.679-.256-.3-1.075.15-1.376,1.205-2.269a13.573,13.573,0,0,1,2.467-1.807,2.124,2.124,0,0,1,.5-.221,1.006,1.006,0,0,1,.8.449,5.44,5.44,0,0,1,.734,1.7c1.261,4.069,3.487,4.685,3.819,5.777A1.281,1.281,0,0,1,161.75,273.646Z" transform="translate(-125.325 -218.129)"/>
      </g>
    </g>
  </g>
</svg>
