<svg xmlns="http://www.w3.org/2000/svg" xmlns:xlink="http://www.w3.org/1999/xlink" width="131" height="133" viewBox="0 0 131 133">
  <defs>
    <filter id="Rect치ngulo_402650" x="0" y="0" width="131" height="133" filterUnits="userSpaceOnUse">
      <feOffset dy="3" input="SourceAlpha"/>
      <feGaussianBlur stdDeviation="3" result="blur"/>
      <feFlood flood-opacity="0.161"/>
      <feComposite operator="in" in2="blur"/>
      <feComposite in="SourceGraphic"/>
    </filter>
  </defs>
  <g id="Grupo_1108103" data-name="Grupo 1108103" transform="translate(-1030.051 -3241)">
    <g transform="matrix(1, 0, 0, 1, 1030.05, 3241)" filter="url(#Rect치ngulo_402650)">
      <g id="Rect치ngulo_402650-2" data-name="Rect치ngulo 402650" transform="translate(9 6)" fill="#f1de5f" stroke="#fff" stroke-width="3">
        <rect width="113" height="115" rx="23" stroke="none"/>
        <rect x="1.5" y="1.5" width="110" height="112" rx="21.5" fill="none"/>
      </g>
    </g>
    <g id="Different_part_of_meat" data-name="Different part of meat" transform="translate(1057.051 3270)">
      <path id="Trazado_898155" data-name="Trazado 898155" d="M72.9,31.142a9.5,9.5,0,0,0-9.464-8.678H25.748l-2.081-1.4c-4.048-1.352-4.153-1.425-4.752-1.514h.105a4.339,4.339,0,0,0,.7-5.723L18.656,12.28l-.34,1.878a5.885,5.885,0,0,1-2.429,3.772l-.931.64a4.323,4.323,0,0,0-.121-4.744L13.766,12.28l-.34,1.878A5.885,5.885,0,0,1,11,17.931a32.624,32.624,0,0,1-3.133,2.218A4.112,4.112,0,0,0,5.3,18.8L1,18.263l.81,2.809a5.367,5.367,0,0,0,2.7,3.3l.445.235L1.372,32.041a3.238,3.238,0,0,0,3,4.6c8.314-.291,7.691-.3,7.772-.2l7.1,8.217,2.242,6.387a9.771,9.771,0,0,1,.267,5.618L18.429,70.106H29.391c4.112-18.142,3.384-15.017,4.048-17.688H50.066a11.2,11.2,0,0,1,.745,2.153l-1.3.389a.81.81,0,0,0,.453,1.554c1.724-.5,1.3-.364,1.473-.453a7.415,7.415,0,0,0,1.214,1.619l-1.619,1.255a.81.81,0,0,0,1,1.279L53.4,59.144,51.548,70.106h5.027L59.6,59.816a6.29,6.29,0,0,0,.81-.194c.057.194,0,.073,1.344,1.765a.81.81,0,1,0,1.263-1l-1.166-1.376a7.521,7.521,0,0,0,1.789-1.441l1.619.194c.049.761.1.17-1.975,12.346h5.027c4.671-15.818,3.959-13.163,4.331-15.43,0-2.655-2.145-4.428-1.619-7.286,1.409-4.242,1.87-4.59,1.87-5.893.049-10.184.065-8.16.008-10.354ZM10.083,19.477h0Z" transform="translate(-0.19 -2.339)" fill="#fff"/>
      <path id="Trazado_898156" data-name="Trazado 898156" d="M61.62,61.815l-.04-.105" transform="translate(-11.728 -11.753)" fill="#fff"/>
      <path id="Trazado_898157" data-name="Trazado 898157" d="M27.015,77.722H22.53l3.319-13.446a9.771,9.771,0,0,0-.267-5.618L23.34,52.27h3.432l.81,8.257c.291,1.328.186.429-.567,17.195Z" transform="translate(-4.291 -9.955)" fill="#bd3347"/>
      <path id="Trazado_898158" data-name="Trazado 898158" d="M65.407,69.34c0,.291-.55,3.343-1.967,11.633h5.027L71.9,69.34Z" transform="translate(-12.083 -13.206)" fill="#ef5160"/>
      <path id="Trazado_898159" data-name="Trazado 898159" d="M66.56,72.08v-.04Z" transform="translate(-12.677 -13.721)" fill="#231f20"/>
      <path id="Trazado_898160" data-name="Trazado 898160" d="M40.823,85.329H15.89a.81.81,0,1,1,0-1.619H40.823a.81.81,0,1,1,0,1.619Z" transform="translate(-2.872 -15.943)" fill="#06d6a0"/>
      <path id="Trazado_898161" data-name="Trazado 898161" d="M82.454,85.329H54.93a.81.81,0,0,1,0-1.619H82.454a.81.81,0,0,1,0,1.619Z" transform="translate(-10.308 -15.943)" fill="#06d6a0"/>
      <path id="Trazado_898162" data-name="Trazado 898162" fill="#ef6f83"/>
      <path id="Trazado_898163" data-name="Trazado 898163" d="M73.1,68.824a7.52,7.52,0,0,0,1.789-1.441l-.065-.988-1.708-1.708a2.939,2.939,0,0,0-1.554-.81c-.38-.073.753-.049-9.625-.049a2.078,2.078,0,0,0,.138.534l-1.311.413a.817.817,0,0,0,.227,1.619,7.69,7.69,0,0,0,1.571-.421.486.486,0,0,0,.13-.065,7.416,7.416,0,0,0,1.214,1.619l-1.619,1.255a.81.81,0,1,0,1,1.279c1.951-1.53,1.708-1.32,1.838-1.5a7.488,7.488,0,0,0,2.024.955c0,.138.105-.575-.445,2.1a.826.826,0,1,0,1.619.324c.526-2.582.413-2,.429-2.129a7.585,7.585,0,0,0,2.89-.332c.073.2-.049,0,1.344,1.765a.81.81,0,1,0,1.263-1Z" transform="translate(-11.439 -12.156)" fill="#ef6f83"/>
      <path id="Trazado_898164" data-name="Trazado 898164" d="M92.132,42.74a.81.81,0,0,1-.81-.81v-2.8a8.1,8.1,0,0,0-2.38-5.756l-3.918-3.918a.81.81,0,1,1,1.15-1.141l3.91,3.91a9.714,9.714,0,0,1,2.858,6.905v2.8a.81.81,0,0,1-.81.81Z" transform="translate(-16.149 -5.347)" fill="#495a83"/>
      <path id="Trazado_898165" data-name="Trazado 898165" d="M30.669,67.58l6.962,1.15-2.7,11.908H30.07S30.418,73,30.669,67.58Z" transform="translate(-5.727 -12.871)" fill="#ffa2b2"/>
      <path id="Trazado_898166" data-name="Trazado 898166" d="M26.2,48.07l.753,7.869L21.24,49.325Z" transform="translate(-4.045 -9.155)" fill="#efa19c"/>
      <path id="Trazado_898167" data-name="Trazado 898167" d="M41.959,46.55c-4.169,16.466-3.513,13.908-3.6,14.232-.583,2.566-.478,2.234-.559,2.234-7.707-1.247-7.116-1.158-7.2-1.158a8.784,8.784,0,0,0-.138-2.777L29.33,47.3C35.539,45.724,36.753,45.919,41.959,46.55Z" transform="translate(-5.586 -8.777)" fill="#ef6f83"/>
      <path id="Trazado_898168" data-name="Trazado 898168" d="M23.684,22.756l-1.214,1.4-1.3,3.295a19.51,19.51,0,0,1-6.3,8.346l-2.712,2.331c-.081-.1.534-.089-7.772.2a3.238,3.238,0,0,1-3-4.6L6.247,23.695a4.477,4.477,0,0,1,5.294-2.348c2.429.745,2.939,1.133,5.076.186a4.794,4.794,0,0,1,3.91.17c.089,0-.04-.016,3.157,1.052Z" transform="translate(-0.208 -4.031)" fill="#ef6f83"/>
      <path id="Trazado_898169" data-name="Trazado 898169" d="M25.08,42.113l-6.015,1.514-3-3.465,2.671-2.307c5.132-3.942,6.476-8.217,8.168-12.475C25.347,35.435,24.8,37.628,25.08,42.113Z" transform="translate(-3.061 -4.834)" fill="#bd3347"/>
      <path id="Trazado_898170" data-name="Trazado 898170" d="M42.306,40.921c-5.27-.648-6.873-.89-13.147.7-.235-4.282.389-6.808,1.943-16.758H42.249C44.24,34.469,44.216,32.6,42.306,40.921Z" transform="translate(-5.544 -4.735)" fill="#ff3f5c"/>
      <path id="Trazado_898171" data-name="Trazado 898171" d="M61.818,48.775,59.6,58.983H43.15L46.21,46.84Z" transform="translate(-8.218 -8.921)" fill="#ffc6cf"/>
      <path id="Trazado_898172" data-name="Trazado 898172" d="M43.93,58l-.81,3.125H59.57l.7-3.125Z" transform="translate(-8.213 -11.047)" fill="#ffa8b6"/>
      <path id="Trazado_898173" data-name="Trazado 898173" d="M73.063,50.128,71.25,59.486H65.51L67.688,49.48Z" transform="translate(-12.477 -9.424)" fill="#f23b57"/>
      <path id="Trazado_898174" data-name="Trazado 898174" d="M66.19,57.96,65.51,61.1h5.74l.607-3.141Z" transform="translate(-12.477 -11.039)" fill="#d41d39"/>
      <path id="Trazado_898175" data-name="Trazado 898175" d="M57.891,34.042l-2.429,8.1-8.023-.971,1.069-4.622a14.086,14.086,0,0,0,.081-6.015c-.324-1.554-.065-.283-1.15-5.618h7.739C56.75,30.229,56.118,28.091,57.891,34.042Z" transform="translate(-9.035 -4.744)" fill="#ef5160"/>
      <path id="Trazado_898176" data-name="Trazado 898176" d="M65.184,34.7l.971.259-1.028,8.1-5.853-.712L61.7,34.335c.1-.356.251.372-2.663-9.415h5.934l1.4,7.286h-.931a1.271,1.271,0,0,0-.259,2.493Z" transform="translate(-11.245 -4.746)" fill="#ef6f83"/>
      <path id="Trazado_898177" data-name="Trazado 898177" d="M74.406,31.863l-4.582.186c-.664-3.449-.348-1.83-1.384-7.189h4.129Z" transform="translate(-13.035 -4.735)" fill="#bd3347"/>
      <path id="Trazado_898178" data-name="Trazado 898178" d="M87.114,33.538l-9.658-1.619L75.61,24.86h2.04A9.5,9.5,0,0,1,87.114,33.538Z" transform="translate(-14.401 -4.735)" fill="#ef5160"/>
      <path id="Trazado_898179" data-name="Trazado 898179" d="M73.851,46.29l-5.311-.64,1-7.861,4.825,1.279Z" transform="translate(-13.054 -7.197)" fill="#ef5160"/>
      <path id="Trazado_898180" data-name="Trazado 898180" d="M74.739,36.981,69.89,35.7l4.954-.2Z" transform="translate(-13.311 -6.761)" fill="#ef6f83"/>
      <path id="Trazado_898181" data-name="Trazado 898181" d="M77.349,62.13a4.857,4.857,0,0,0-2.769-1.619l1.166-6.031Z" transform="translate(-14.204 -10.376)" fill="#ef6f83"/>
      <path id="Trazado_898182" data-name="Trazado 898182" d="M87.043,66.76c-3.862,13.147-3.068,10.395-4.048,13.722H78c2.113-12.41,2.024-11.6,1.975-12.346Z" transform="translate(-14.856 -12.715)" fill="#ff3f5c"/>
      <path id="Trazado_898183" data-name="Trazado 898183" d="M87.368,62.822,80.147,64.23,78.22,55.05l7.561.526C85.223,58.385,87.368,60.182,87.368,62.822Z" transform="translate(-14.898 -10.485)" fill="#bd3347"/>
      <path id="Trazado_898184" data-name="Trazado 898184" d="M87.419,37.231c0,9.374.1,9.294-.275,10.233l-1.077,2.85-8.419-.623L77,46.735l.81-11.115Z" transform="translate(-14.665 -6.784)" fill="#ef6f83"/>
      <path id="Trazado_898185" data-name="Trazado 898185" d="M7.865,21.556A4.614,4.614,0,0,0,6.246,23.41a18.36,18.36,0,0,1-1.3,2.607l-.445-.235a5.367,5.367,0,0,1-2.7-3.3L1,19.67l4.3.542a4.112,4.112,0,0,1,2.566,1.344Z" transform="translate(-0.19 -3.746)" fill="#ff3f5c"/>
      <path id="Trazado_898186" data-name="Trazado 898186" d="M21.452,13.836,20.383,12.29l-.34,1.878a5.885,5.885,0,0,1-2.429,3.772l-.931.64a4.323,4.323,0,0,0-.121-4.744L15.493,12.29l-.34,1.878a5.885,5.885,0,0,1-2.429,3.772L9.94,19.948c1.9-.955,3.376-.267,5.2.283,2.485.753,3.109-1.141,5.6-.672a4.339,4.339,0,0,0,.712-5.723Z" transform="translate(-1.893 -2.341)" fill="#495a83"/>
      <path id="Trazado_898187" data-name="Trazado 898187" d="M43.856,24.86l.907,4.444c-1.328,0-2.631.138-3.894-1.125L37.55,24.86Z" transform="translate(-7.152 -4.735)" fill="#ff7689"/>
      <path id="Trazado_898188" data-name="Trazado 898188" d="M56.475,29.3H48.307L47.4,24.86h7.755Z" transform="translate(-9.028 -4.735)" fill="#ef6a83"/>
      <path id="Trazado_898189" data-name="Trazado 898189" d="M64.994,24.86l.858,4.444H60.38L59.06,24.86Z" transform="translate(-11.248 -4.735)" fill="#ef92b5"/>
      <path id="Trazado_898190" data-name="Trazado 898190" d="M77.431,24.86,75.99,26.3l-.38-1.441Z" transform="translate(-14.401 -4.735)" fill="#ef6a83"/>
      <path id="Trazado_898191" data-name="Trazado 898191" d="M73.3,27.669l-1.085,1.085a1.878,1.878,0,0,1-1.328.55H69.268L68.41,24.86h4.129Z" transform="translate(-13.029 -4.735)" fill="#d15165"/>
      <path id="Trazado_898192" data-name="Trazado 898192" d="M36.255,59.319a.874.874,0,0,1-1.716-.13c-.2-2.072-.372-3.878-.34-3.586a1.182,1.182,0,0,1,1.052-1.287l.672-.057a1.182,1.182,0,0,1,1.247,1.457Z" transform="translate(-6.512 -10.333)" fill="#ef889c"/>
      <path id="Trazado_898193" data-name="Trazado 898193" d="M39.192,35.123l.275.275a1.911,1.911,0,0,1,.559,1.352v.291a.988.988,0,0,1-.988.988,4.169,4.169,0,0,0-1.352.105l-2.963.89a.923.923,0,0,1-.907-1.538l2.429-2.38a2.064,2.064,0,0,1,2.947.016Z" transform="translate(-6.39 -6.57)" fill="#ff7689"/>
      <path id="Trazado_898194" data-name="Trazado 898194" d="M56.02,54.924H50.734A1.133,1.133,0,0,1,49.641,53.5l.194-.729a1.166,1.166,0,0,1,1.417-.81l4.388,1.133a1.1,1.1,0,0,1,.81,1.077v.243a.478.478,0,0,1-.429.51Z" transform="translate(-9.447 -9.889)" fill="#ffa8b6"/>
      <path id="Trazado_898195" data-name="Trazado 898195" d="M23.684,22.882l-1.214,1.4-1.3,3.295a19.51,19.51,0,0,1-6.3,8.346l-2.712,2.331c-.081-.1.534-.089-7.772.2a3.238,3.238,0,0,1-3-4.6h.737c2.647,0,2.647,2.623,5.408,2.623,1.53,0,2.582.154,3.716-.672l4.7-3.441a6.63,6.63,0,0,0,2.161-2.712c2.688-6.217,2.429-5.027,2.429-7.828.073,0-.057-.016,3.141,1.052Z" transform="translate(-0.208 -4.158)" fill="#ef5160"/>
      <path id="Trazado_898196" data-name="Trazado 898196" d="M85.406,67.221l2.372-.461L83.73,80.482H81.86Z" transform="translate(-15.591 -12.715)" fill="#e12b43"/>
      <path id="Trazado_898197" data-name="Trazado 898197" d="M88.55,62.911l-2.194.429c-2.2-6.2-2.21-5.343-1.538-7.82l2.145.146C86.4,58.475,88.55,60.272,88.55,62.911Z" transform="translate(-16.08 -10.574)" fill="#a92447"/>
      <path id="Trazado_898198" data-name="Trazado 898198" d="M89.024,47.26c0,2.032.113,1.392-1.352,5.27l-2.242-.162.98-3.7A1.943,1.943,0,0,1,88.32,47.26Z" transform="translate(-16.271 -9.001)" fill="#ef516a"/>
    </g>
  </g>
</svg>
