<svg xmlns="http://www.w3.org/2000/svg" xmlns:xlink="http://www.w3.org/1999/xlink" width="75.987" height="75.987" viewBox="0 0 75.987 75.987">
  <defs>
    <filter id="Trazado_874925" x="0" y="0" width="75.987" height="75.987" filterUnits="userSpaceOnUse">
      <feOffset dy="3" input="SourceAlpha"/>
      <feGaussianBlur stdDeviation="3" result="blur"/>
      <feFlood flood-opacity="0.161"/>
      <feComposite operator="in" in2="blur"/>
      <feComposite in="SourceGraphic"/>
    </filter>
  </defs>
  <g id="Grupo_1108113" data-name="Grupo 1108113" transform="translate(-184.051 -3695)">
    <g id="Grupo_1107965" data-name="Grupo 1107965" transform="translate(193.051 3701)">
      <g transform="matrix(1, 0, 0, 1, -9, -6)" filter="url(#Trazado_874925)">
        <g id="Trazado_874925-2" data-name="Trazado 874925" transform="translate(9 6)" fill="#f1de5f">
          <path d="M 28.99347496032715 56.48728179931641 C 25.28121566772461 56.48728179931641 21.68080520629883 55.76057434082031 18.29223442077637 54.32732391357422 C 15.01851463317871 52.94265365600586 12.07809543609619 50.9600715637207 9.552655220031738 48.43463134765625 C 7.027215003967285 45.9091911315918 5.044634819030762 42.96877288818359 3.659965038299561 39.69505310058594 C 2.226714849472046 36.30648422241211 1.500005006790161 32.70607376098633 1.500005006790161 28.99381256103516 C 1.500005006790161 25.28121376037598 2.226714849472046 21.6808032989502 3.659965038299561 18.29223251342773 C 5.044634819030762 15.01851272583008 7.027215003967285 12.07809257507324 9.552655220031738 9.552652359008789 C 12.07809543609619 7.027212619781494 15.01851463317871 5.044632911682129 18.29223442077637 3.659962892532349 C 21.68080520629883 2.226712703704834 25.28121566772461 1.500002861022949 28.99347496032715 1.500002861022949 C 32.70573425292969 1.500002861022949 36.30615615844727 2.226712703704834 39.6947135925293 3.659962892532349 C 42.96844482421875 5.044632911682129 45.90886306762695 7.027212619781494 48.43430328369141 9.552652359008789 C 50.95973587036133 12.07809257507324 52.94232559204102 15.01851272583008 54.32699584960938 18.29223251342773 C 55.76024627685547 21.6808032989502 56.48695373535156 25.28121376037598 56.48695373535156 28.99347305297852 C 56.48695373535156 32.70607376098633 55.76024627685547 36.30648422241211 54.32699584960938 39.69505310058594 C 52.94232559204102 42.96877288818359 50.95973587036133 45.9091911315918 48.43430328369141 48.43463134765625 C 45.90886306762695 50.9600715637207 42.96844482421875 52.94265365600586 39.6947135925293 54.32732391357422 C 36.30615615844727 55.76057434082031 32.70573425292969 56.48728179931641 28.99347496032715 56.48728179931641 Z" stroke="none"/>
          <path d="M 28.99347496032715 3.000003814697266 C 25.48305511474609 3.000003814697266 22.0792350769043 3.686851501464844 18.87655639648438 5.041461944580078 C 15.78163528442383 6.350513458251953 13.0014762878418 8.225151062011719 10.61330413818359 10.61331176757812 C 8.225143432617188 13.00148391723633 6.350505828857422 15.78163146972656 5.041454315185547 18.87656402587891 C 3.686843872070312 22.07923126220703 2.999996185302734 25.48305130004883 2.999996185302734 28.99381256103516 C 2.999996185302734 32.50423431396484 3.686843872070312 35.90805053710938 5.041454315185547 39.11072540283203 C 6.350505828857422 42.20565414428711 8.225143432617188 44.98580169677734 10.61330413818359 47.37397384643555 C 13.0014762878418 49.76213073730469 15.78163528442383 51.63677215576172 18.87655639648438 52.94582366943359 C 22.0792350769043 54.30043411254883 25.48305511474609 54.98728179931641 28.99347496032715 54.98728179931641 C 32.5038948059082 54.98728179931641 35.90771484375 54.30043411254883 39.11038589477539 52.94582366943359 C 42.20531463623047 51.63677215576172 44.98546600341797 49.76213073730469 47.37363433837891 47.37397384643555 C 49.76179504394531 44.98580169677734 51.63643646240234 42.20565414428711 52.94548416137695 39.11072540283203 C 54.30009460449219 35.90805053710938 54.98694610595703 32.50423431396484 54.98694610595703 28.99347305297852 C 54.98694610595703 25.48305130004883 54.30009460449219 22.07923126220703 52.94548416137695 18.87656402587891 C 51.63643646240234 15.78163146972656 49.76179504394531 13.00148391723633 47.37363433837891 10.61331176757812 C 44.98546600341797 8.225151062011719 42.20531463623047 6.350513458251953 39.11038589477539 5.041461944580078 C 35.90771484375 3.686851501464844 32.5038948059082 3.000003814697266 28.99347496032715 3.000003814697266 M 28.99347496032715 3.814697265625e-06 C 45.00612640380859 3.814697265625e-06 57.98694610595703 12.9808235168457 57.98694610595703 28.99347305297852 L 57.98694610595703 28.99381256103516 C 57.98694610595703 45.00646209716797 45.00612640380859 57.98728179931641 28.99347496032715 57.98728179931641 C 12.98081588745117 57.98728179931641 -3.814697265625e-06 45.00646209716797 -3.814697265625e-06 28.99381256103516 L -3.814697265625e-06 28.99347305297852 C -3.814697265625e-06 12.9808235168457 12.98081588745117 3.814697265625e-06 28.99347496032715 3.814697265625e-06 Z" stroke="none" fill="#fff"/>
        </g>
      </g>
      <g id="Trazado_874923" data-name="Trazado 874923" transform="translate(0 0)" fill="none">
        <path d="M28.993,0A28.993,28.993,0,0,1,57.987,28.993h0A28.993,28.993,0,0,1,0,28.994H0A28.993,28.993,0,0,1,28.993,0Z" stroke="none"/>
        <path d="M 28.99347496032715 3.000003814697266 C 25.48305511474609 3.000003814697266 22.0792350769043 3.686851501464844 18.87655639648438 5.041461944580078 C 15.78163528442383 6.350513458251953 13.0014762878418 8.225151062011719 10.61330413818359 10.61331176757812 C 8.225143432617188 13.00148391723633 6.350505828857422 15.78163146972656 5.041454315185547 18.87656402587891 C 3.686843872070312 22.07923126220703 2.999996185302734 25.48305130004883 2.999996185302734 28.99381256103516 C 2.999996185302734 32.50423431396484 3.686843872070312 35.90805053710938 5.041454315185547 39.11072540283203 C 6.350505828857422 42.20565414428711 8.225143432617188 44.98580169677734 10.61330413818359 47.37397384643555 C 13.0014762878418 49.76213073730469 15.78163528442383 51.63677215576172 18.87655639648438 52.94582366943359 C 22.0792350769043 54.30043411254883 25.48305511474609 54.98728179931641 28.99347496032715 54.98728179931641 C 32.5038948059082 54.98728179931641 35.90771484375 54.30043411254883 39.11038589477539 52.94582366943359 C 42.20531463623047 51.63677215576172 44.98546600341797 49.76213073730469 47.37363433837891 47.37397384643555 C 49.76179504394531 44.98580169677734 51.63643646240234 42.20565414428711 52.94548416137695 39.11072540283203 C 54.30009460449219 35.90805053710938 54.98694610595703 32.50423431396484 54.98694610595703 28.99347305297852 C 54.98694610595703 25.48305130004883 54.30009460449219 22.07923126220703 52.94548416137695 18.87656402587891 C 51.63643646240234 15.78163146972656 49.76179504394531 13.00148391723633 47.37363433837891 10.61331176757812 C 44.98546600341797 8.225151062011719 42.20531463623047 6.350513458251953 39.11038589477539 5.041461944580078 C 35.90771484375 3.686851501464844 32.5038948059082 3.000003814697266 28.99347496032715 3.000003814697266 M 28.99347496032715 3.814697265625e-06 C 45.00612640380859 3.814697265625e-06 57.98694610595703 12.9808235168457 57.98694610595703 28.99347305297852 L 57.98694610595703 28.99381256103516 C 57.98694610595703 45.00646209716797 45.00612640380859 57.98728179931641 28.99347496032715 57.98728179931641 C 12.98081588745117 57.98728179931641 -3.814697265625e-06 45.00646209716797 -3.814697265625e-06 28.99381256103516 L -3.814697265625e-06 28.99347305297852 C -3.814697265625e-06 12.9808235168457 12.98081588745117 3.814697265625e-06 28.99347496032715 3.814697265625e-06 Z" stroke="none" fill="#fff"/>
      </g>
    </g>
    <g id="filled_outline" data-name="filled outline" transform="translate(187.426 3694)">
      <path id="Trazado_898230" data-name="Trazado 898230" d="M252.678,52.066a.678.678,0,1,1,0-1.355,1.7,1.7,0,0,0,1.694-1.694v-.339a.678.678,0,1,1,1.355,0v.339A3.053,3.053,0,0,1,252.678,52.066Z" transform="translate(-217.021 -29.29)" fill="#bbbab6"/>
      <path id="Trazado_898231" data-name="Trazado 898231" d="M168.131,56h-2.71l-2.033,4.066L162.356,61.3A10.164,10.164,0,0,0,160,67.811v.141a6.777,6.777,0,0,0,.715,3.03l.016.032a4.066,4.066,0,0,1,.35,2.615l-.272,1.362a6.772,6.772,0,0,0-.132,1.329V86.492L160,89.88l3.388,1.355,1.49-1.49a3.049,3.049,0,0,1,2.9-.8l1.036.259,2.71,3.388h2.71l-.678-4.743-2.033-4.066.016-.032a6.269,6.269,0,0,0,.662-2.8V73.065a6.269,6.269,0,0,0-.662-2.8l-1.851-3.7a6.267,6.267,0,0,1-.6-3.689l.276-1.934a3.727,3.727,0,0,0-.154-1.706Z" transform="translate(-132.813 -36.612)" fill="#dc2d3b"/>
      <path id="Trazado_898232" data-name="Trazado 898232" d="M205.639,63.532,204.3,63.08a1.334,1.334,0,0,1-.913-1.266,1.747,1.747,0,0,0-1.748-1.748H200L202.033,56h2.71l1.077,3.231a3.72,3.72,0,0,1,.153,1.705l-.276,1.935A6.188,6.188,0,0,0,205.639,63.532Z" transform="translate(-169.425 -36.612)" fill="#ff3444"/>
      <path id="Trazado_898233" data-name="Trazado 898233" d="M269.421,392.809h-2.71L264,389.421A6.777,6.777,0,0,0,266.71,384l2.033,4.066Z" transform="translate(-228.004 -336.83)" fill="#ff3444"/>
      <g id="Grupo_1108112" data-name="Grupo 1108112" transform="translate(31.252 16)">
        <path id="Trazado_898234" data-name="Trazado 898234" d="M225.723,22.371a.674.674,0,0,1-.379-.116A3.048,3.048,0,0,1,224,19.727V16.678a.678.678,0,1,1,1.355,0v3.049a1.694,1.694,0,0,0,.748,1.405.678.678,0,0,1-.38,1.239Z" transform="translate(-222.645 -16)" fill="#cdccc8"/>
        <path id="Trazado_898235" data-name="Trazado 898235" d="M212.743,354.033a.675.675,0,0,1-.3-.072l-.032-.016a5.619,5.619,0,0,0-2.5-.59h-1.231a.678.678,0,0,1,0-1.355h1.231a6.982,6.982,0,0,1,3.106.733l.032.016a.678.678,0,0,1-.3,1.284Z" transform="translate(-208 -323.541)" fill="#cdccc8"/>
        <path id="Trazado_898236" data-name="Trazado 898236" d="M212.743,322.033a.675.675,0,0,1-.3-.072l-.032-.016a5.618,5.618,0,0,0-2.5-.59h-1.231a.678.678,0,0,1,0-1.355h1.231a6.981,6.981,0,0,1,3.106.733l.032.016a.678.678,0,0,1-.3,1.284Z" transform="translate(-208 -294.251)" fill="#cdccc8"/>
        <path id="Trazado_898237" data-name="Trazado 898237" d="M212.743,290.033a.675.675,0,0,1-.3-.072l-.032-.016a5.618,5.618,0,0,0-2.5-.59h-1.231a.678.678,0,1,1,0-1.355h1.231a6.981,6.981,0,0,1,3.106.733l.032.016a.678.678,0,0,1-.3,1.284Z" transform="translate(-208 -264.961)" fill="#cdccc8"/>
        <path id="Trazado_898238" data-name="Trazado 898238" d="M212.066,257.738a.675.675,0,0,1-.233-.042,5.572,5.572,0,0,0-1.924-.341h-1.231a.678.678,0,0,1,0-1.355h1.231a6.924,6.924,0,0,1,2.39.424.678.678,0,0,1-.233,1.314Z" transform="translate(-208 -235.672)" fill="#cdccc8"/>
      </g>
      <path id="Trazado_898239" data-name="Trazado 898239" d="M164.743,118.714v8.026a7.788,7.788,0,0,1-.672,3.165l-2.039,4.587h-.339L160,133.815l.678-3.388V120.256a6.8,6.8,0,0,1,.131-1.328l.273-1.363a4.064,4.064,0,0,0-.351-2.616l-.015-.032a6.771,6.771,0,0,1-.716-3.031v-.141a10.166,10.166,0,0,1,2.356-6.508L163.388,104l.174.174a2.139,2.139,0,0,1,.322,2.614l-.063.105a7.792,7.792,0,0,0-1.11,4.009v.068a7.8,7.8,0,0,0,.822,3.485l.388.774A7.8,7.8,0,0,1,164.743,118.714Z" transform="translate(-132.813 -80.546)" fill="#dc2d3b"/>
      <path id="Trazado_898241" data-name="Trazado 898241" d="M164.743,118.714v8.026a7.788,7.788,0,0,1-.672,3.165l-2.039,4.587h-.339L160,133.815l.678-3.388V120.256a6.8,6.8,0,0,1,.131-1.328l.273-1.363a4.064,4.064,0,0,0-.351-2.616l-.015-.032a6.771,6.771,0,0,1-.716-3.031v-.141a10.166,10.166,0,0,1,2.356-6.508L163.388,104l.174.174a2.139,2.139,0,0,1,.322,2.614l-.063.105a7.792,7.792,0,0,0-1.11,4.009v.068a7.8,7.8,0,0,0,.822,3.485l.388.774A7.8,7.8,0,0,1,164.743,118.714Z" transform="translate(-132.813 -80.546)" fill="#aa232e"/>
      <path id="Trazado_898242" data-name="Trazado 898242" d="M158.134,161.355h-2.456a.678.678,0,1,1,0-1.355h2.456a.678.678,0,1,1,0,1.355Z" transform="translate(-128.237 -131.803)" fill="#bbbab6"/>
      <path id="Trazado_898243" data-name="Trazado 898243" d="M224,32h1.355v.678H224Z" transform="translate(-191.392 -14.645)" fill="#bbbab6"/>
      <path id="Trazado_898244" data-name="Trazado 898244" d="M43.739,16H25.3a.678.678,0,1,0,0,1.355h7.306V18.71a.678.678,0,0,0-.606.375l-2,4-.982,1.178A10.862,10.862,0,0,0,26.509,31.2v.141a7.491,7.491,0,0,0,.787,3.333l.016.033a3.4,3.4,0,0,1,.292,2.18l-.272,1.362a7.469,7.469,0,0,0-.145,1.462v10.1l-.664,3.322a.678.678,0,0,0,.413.762l3.388,1.355a.678.678,0,0,0,.731-.15l1.49-1.49a2.383,2.383,0,0,1,2.252-.624l.814.2L38.177,56.4a.678.678,0,0,0,.529.254h2.71a.678.678,0,0,0,.671-.773L41.41,51.14a.678.678,0,0,0-.065-.207l-1.885-3.77a6.985,6.985,0,0,0,.6-2.827V36.453a6.981,6.981,0,0,0-.733-3.106l-1.851-3.7a5.566,5.566,0,0,1-.534-3.291l.276-1.934a4.428,4.428,0,0,0-.172-1.982,3.052,3.052,0,0,0,1.658-2.712v-.339a.678.678,0,0,0-1.355,0v.339a1.693,1.693,0,0,1-.739,1.4l-.65-1.951a.678.678,0,0,0-.643-.463H33.963V17.355h9.776a.678.678,0,1,0,0-1.355ZM31.252,46.194a7.146,7.146,0,0,1-.067.976H28.542V45.815h2.71Zm-2.71-1.734V43.1h2.71v1.355Zm0-2.71V40.394h2.71v1.355Zm.038-2.71c.019-.176.045-.352.08-.525l.166-.83h2.408c.011.161.017.323.017.484v.871Zm.442-2.71a4.783,4.783,0,0,0-.166-1.355h1.639l.007.013a7.105,7.105,0,0,1,.508,1.342Zm-.716-2.71a6.15,6.15,0,0,1-.371-1.355h1.488a8.521,8.521,0,0,0,.423,1.355Zm.927-2.71H27.871a9.473,9.473,0,0,1,.138-1.355h1.249c-.025.266-.039.534-.039.8v.068Q29.22,30.665,29.234,30.907ZM29.5,28.2H28.356a9.518,9.518,0,0,1,.57-1.355h1.059A8.481,8.481,0,0,0,29.5,28.2Zm1.062-3.67a1.459,1.459,0,0,1,.092.964.682.682,0,0,0-.079,0h-.8c.092-.122.186-.242.285-.36ZM28.529,50.013a.68.68,0,0,0,.013-.133V48.525H30.86q-.1.282-.22.558l-1.825,4.106-.853-.341ZM40.084,51.44l.552,3.861h-1.6L36.94,52.687a7.5,7.5,0,0,0,2.108-3.318ZM38.116,33.953a5.618,5.618,0,0,1,.59,2.5v7.882a5.618,5.618,0,0,1-.59,2.5l-.016.032a.678.678,0,0,0-.072.3,6.13,6.13,0,0,1-2.192,4.682l-.711-.178a3.745,3.745,0,0,0-3.539.98l-1.174,1.174-.338-.136,1.8-4.059a8.417,8.417,0,0,0,.73-3.44v-.379h.553a5.619,5.619,0,0,1,2.5.59l.032.016a.678.678,0,1,0,.606-1.212l-.032-.016a6.981,6.981,0,0,0-3.106-.733h-.553V43.1h.553a5.619,5.619,0,0,1,2.5.59l.032.016A.678.678,0,1,0,36.3,42.5l-.032-.016a6.982,6.982,0,0,0-3.106-.733h-.553V40.394h.553a5.619,5.619,0,0,1,2.5.59l.032.016a.678.678,0,1,0,.606-1.212l-.032-.016a6.982,6.982,0,0,0-3.106-.733h-.553v-.871q0-.242-.014-.484h.567a5.571,5.571,0,0,1,1.924.342.678.678,0,1,0,.467-1.272,6.924,6.924,0,0,0-2.391-.424H32.4a8.484,8.484,0,0,0-.69-1.948l-.387-.775a7.15,7.15,0,0,1-.751-3.182v-.068a7.116,7.116,0,0,1,1.014-3.66l.063-.105a2.813,2.813,0,0,0,.215-2.459h.347A1.072,1.072,0,0,1,33.285,25.2a2.01,2.01,0,0,0,1.376,1.909l.876.292a6.913,6.913,0,0,0,.728,2.848ZM35.752,22.833a3.066,3.066,0,0,1,.126,1.4L35.624,26l-.535-.178a.656.656,0,0,1-.449-.623,2.429,2.429,0,0,0-2.426-2.426h-.543l1.073-2.146a3.055,3.055,0,0,0,2.913,2.146l.076,0Zm-.487-1.46A1.7,1.7,0,0,1,34,20.066h.833Z" transform="translate(0 0)"/>
    </g>
  </g>
</svg>
