<svg xmlns="http://www.w3.org/2000/svg" xmlns:xlink="http://www.w3.org/1999/xlink" width="75.987" height="75.987" viewBox="0 0 75.987 75.987">
  <defs>
    <filter id="Trazado_874925" x="0" y="0" width="75.987" height="75.987" filterUnits="userSpaceOnUse">
      <feOffset dy="3" input="SourceAlpha"/>
      <feGaussianBlur stdDeviation="3" result="blur"/>
      <feFlood flood-opacity="0.161"/>
      <feComposite operator="in" in2="blur"/>
      <feComposite in="SourceGraphic"/>
    </filter>
  </defs>
  <g id="Grupo_1108111" data-name="Grupo 1108111" transform="translate(-393.051 -3695)">
    <g id="Grupo_1107969" data-name="Grupo 1107969" transform="translate(402.051 3701)">
      <g transform="matrix(1, 0, 0, 1, -9, -6)" filter="url(#Trazado_874925)">
        <g id="Trazado_874925-2" data-name="Trazado 874925" transform="translate(9 6)" fill="#f1de5f">
          <path d="M 28.99347496032715 56.48728179931641 C 25.28121566772461 56.48728179931641 21.68080520629883 55.76057434082031 18.29223442077637 54.32732391357422 C 15.01851463317871 52.94265365600586 12.07809543609619 50.9600715637207 9.552655220031738 48.43463134765625 C 7.027215003967285 45.9091911315918 5.044634819030762 42.96877288818359 3.659965038299561 39.69505310058594 C 2.226714849472046 36.30648422241211 1.500005006790161 32.70607376098633 1.500005006790161 28.99381256103516 C 1.500005006790161 25.28121376037598 2.226714849472046 21.6808032989502 3.659965038299561 18.29223251342773 C 5.044634819030762 15.01851272583008 7.027215003967285 12.07809257507324 9.552655220031738 9.552652359008789 C 12.07809543609619 7.027212619781494 15.01851463317871 5.044632911682129 18.29223442077637 3.659962892532349 C 21.68080520629883 2.226712703704834 25.28121566772461 1.500002861022949 28.99347496032715 1.500002861022949 C 32.70573425292969 1.500002861022949 36.30615615844727 2.226712703704834 39.6947135925293 3.659962892532349 C 42.96844482421875 5.044632911682129 45.90886306762695 7.027212619781494 48.43430328369141 9.552652359008789 C 50.95973587036133 12.07809257507324 52.94232559204102 15.01851272583008 54.32699584960938 18.29223251342773 C 55.76024627685547 21.6808032989502 56.48695373535156 25.28121376037598 56.48695373535156 28.99347305297852 C 56.48695373535156 32.70607376098633 55.76024627685547 36.30648422241211 54.32699584960938 39.69505310058594 C 52.94232559204102 42.96877288818359 50.95973587036133 45.9091911315918 48.43430328369141 48.43463134765625 C 45.90886306762695 50.9600715637207 42.96844482421875 52.94265365600586 39.6947135925293 54.32732391357422 C 36.30615615844727 55.76057434082031 32.70573425292969 56.48728179931641 28.99347496032715 56.48728179931641 Z" stroke="none"/>
          <path d="M 28.99347496032715 3.000003814697266 C 25.48305511474609 3.000003814697266 22.0792350769043 3.686851501464844 18.87655639648438 5.041461944580078 C 15.78163528442383 6.350513458251953 13.0014762878418 8.225151062011719 10.61330413818359 10.61331176757812 C 8.225143432617188 13.00148391723633 6.350505828857422 15.78163146972656 5.041454315185547 18.87656402587891 C 3.686843872070312 22.07923126220703 2.999996185302734 25.48305130004883 2.999996185302734 28.99381256103516 C 2.999996185302734 32.50423431396484 3.686843872070312 35.90805053710938 5.041454315185547 39.11072540283203 C 6.350505828857422 42.20565414428711 8.225143432617188 44.98580169677734 10.61330413818359 47.37397384643555 C 13.0014762878418 49.76213073730469 15.78163528442383 51.63677215576172 18.87655639648438 52.94582366943359 C 22.0792350769043 54.30043411254883 25.48305511474609 54.98728179931641 28.99347496032715 54.98728179931641 C 32.5038948059082 54.98728179931641 35.90771484375 54.30043411254883 39.11038589477539 52.94582366943359 C 42.20531463623047 51.63677215576172 44.98546600341797 49.76213073730469 47.37363433837891 47.37397384643555 C 49.76179504394531 44.98580169677734 51.63643646240234 42.20565414428711 52.94548416137695 39.11072540283203 C 54.30009460449219 35.90805053710938 54.98694610595703 32.50423431396484 54.98694610595703 28.99347305297852 C 54.98694610595703 25.48305130004883 54.30009460449219 22.07923126220703 52.94548416137695 18.87656402587891 C 51.63643646240234 15.78163146972656 49.76179504394531 13.00148391723633 47.37363433837891 10.61331176757812 C 44.98546600341797 8.225151062011719 42.20531463623047 6.350513458251953 39.11038589477539 5.041461944580078 C 35.90771484375 3.686851501464844 32.5038948059082 3.000003814697266 28.99347496032715 3.000003814697266 M 28.99347496032715 3.814697265625e-06 C 45.00612640380859 3.814697265625e-06 57.98694610595703 12.9808235168457 57.98694610595703 28.99347305297852 L 57.98694610595703 28.99381256103516 C 57.98694610595703 45.00646209716797 45.00612640380859 57.98728179931641 28.99347496032715 57.98728179931641 C 12.98081588745117 57.98728179931641 -3.814697265625e-06 45.00646209716797 -3.814697265625e-06 28.99381256103516 L -3.814697265625e-06 28.99347305297852 C -3.814697265625e-06 12.9808235168457 12.98081588745117 3.814697265625e-06 28.99347496032715 3.814697265625e-06 Z" stroke="none" fill="#fff"/>
        </g>
      </g>
      <g id="Trazado_874923" data-name="Trazado 874923" transform="translate(0 0)" fill="none">
        <path d="M28.993,0A28.993,28.993,0,0,1,57.987,28.993h0A28.993,28.993,0,0,1,0,28.994H0A28.993,28.993,0,0,1,28.993,0Z" stroke="none"/>
        <path d="M 28.99347496032715 3.000003814697266 C 25.48305511474609 3.000003814697266 22.0792350769043 3.686851501464844 18.87655639648438 5.041461944580078 C 15.78163528442383 6.350513458251953 13.0014762878418 8.225151062011719 10.61330413818359 10.61331176757812 C 8.225143432617188 13.00148391723633 6.350505828857422 15.78163146972656 5.041454315185547 18.87656402587891 C 3.686843872070312 22.07923126220703 2.999996185302734 25.48305130004883 2.999996185302734 28.99381256103516 C 2.999996185302734 32.50423431396484 3.686843872070312 35.90805053710938 5.041454315185547 39.11072540283203 C 6.350505828857422 42.20565414428711 8.225143432617188 44.98580169677734 10.61330413818359 47.37397384643555 C 13.0014762878418 49.76213073730469 15.78163528442383 51.63677215576172 18.87655639648438 52.94582366943359 C 22.0792350769043 54.30043411254883 25.48305511474609 54.98728179931641 28.99347496032715 54.98728179931641 C 32.5038948059082 54.98728179931641 35.90771484375 54.30043411254883 39.11038589477539 52.94582366943359 C 42.20531463623047 51.63677215576172 44.98546600341797 49.76213073730469 47.37363433837891 47.37397384643555 C 49.76179504394531 44.98580169677734 51.63643646240234 42.20565414428711 52.94548416137695 39.11072540283203 C 54.30009460449219 35.90805053710938 54.98694610595703 32.50423431396484 54.98694610595703 28.99347305297852 C 54.98694610595703 25.48305130004883 54.30009460449219 22.07923126220703 52.94548416137695 18.87656402587891 C 51.63643646240234 15.78163146972656 49.76179504394531 13.00148391723633 47.37363433837891 10.61331176757812 C 44.98546600341797 8.225151062011719 42.20531463623047 6.350513458251953 39.11038589477539 5.041461944580078 C 35.90771484375 3.686851501464844 32.5038948059082 3.000003814697266 28.99347496032715 3.000003814697266 M 28.99347496032715 3.814697265625e-06 C 45.00612640380859 3.814697265625e-06 57.98694610595703 12.9808235168457 57.98694610595703 28.99347305297852 L 57.98694610595703 28.99381256103516 C 57.98694610595703 45.00646209716797 45.00612640380859 57.98728179931641 28.99347496032715 57.98728179931641 C 12.98081588745117 57.98728179931641 -3.814697265625e-06 45.00646209716797 -3.814697265625e-06 28.99381256103516 L -3.814697265625e-06 28.99347305297852 C -3.814697265625e-06 12.9808235168457 12.98081588745117 3.814697265625e-06 28.99347496032715 3.814697265625e-06 Z" stroke="none" fill="#fff"/>
      </g>
    </g>
    <g id="c" transform="translate(386.938 3634.76)">
      <path id="Trazado_898227" data-name="Trazado 898227" d="M411.512,172.924a2.36,2.36,0,0,1-2.357-2.357v-4.332a1.17,1.17,0,0,0-1.169-1.169h-2.662a.786.786,0,1,1,0-1.572h2.662a2.743,2.743,0,0,1,2.74,2.74v4.332a.787.787,0,0,0,.786.786.786.786,0,1,1,0,1.572Z" transform="translate(-348.111 -76.182)" fill="#5b3719"/>
      <path id="Trazado_898228" data-name="Trazado 898228" d="M65.771,95.617h0a5.766,5.766,0,0,0-4.012-1.249l-5.717.408a35.508,35.508,0,0,1-6.062-.086l-4.83-.483H42.792l0-.005a6.594,6.594,0,0,0-2.24-2.537l-.115-.077a3.552,3.552,0,0,1-1.207-1.367l-.364-.728a5.081,5.081,0,0,0,.593,4.425l.193.29-2.728.546a2.5,2.5,0,0,0-1.748,1.335l-.238.476-1.572,1.572v1.588a1.555,1.555,0,0,0,1.555,1.555H37.18a1.326,1.326,0,0,1,1.231.834c2.024,4.667,2.826,3.9,4.381,5.453v3.929l-.786,5.5h2.357l2.357-5.5v-3.929a7.017,7.017,0,0,0,4.4,1.572h12.1l1.572,3.143-1.572,5.5h3.143l2.357-5.5-.786-7.072s0-2.3,0-5.086a5.769,5.769,0,0,0-2.165-4.5Z" transform="translate(-8.465 -8.465)" fill="#6ba1c3"/>
      <g id="Grupo_1108110" data-name="Grupo 1108110" transform="translate(24.113 80.241)">
        <path id="Trazado_898229" data-name="Trazado 898229" d="M58.616,87.316a6.625,6.625,0,0,0-.818-.778h0a6.534,6.534,0,0,0-4.559-1.419l-5.717.408a34.825,34.825,0,0,1-5.928-.084l-4.83-.483c-.026,0-1.968,0-1.968,0a7.392,7.392,0,0,0-2.274-2.411l-.115-.077a2.772,2.772,0,0,1-.94-1.065l-.364-.728a.786.786,0,0,0-1.448.1,5.823,5.823,0,0,0,.284,4.411l-1.635.327a3.268,3.268,0,0,0-2.3,1.754l-.181.362-1.481,1.481a.786.786,0,0,0-.23.556v1.588A2.344,2.344,0,0,0,26.454,93.6h2.262a.538.538,0,0,1,.5.34l.009.021c1.544,3.559,2.485,4.189,3.482,4.856a7.133,7.133,0,0,1,.834.622v3.535l-.778,5.445a.786.786,0,0,0,.778.9H35.9a.786.786,0,0,0,.722-.476l2.357-5.5a.786.786,0,0,0,.063-.31v-2.51a6.838,6.838,0,0,0,3.619.939H54.272l1.218,2.435L54,109.1a.786.786,0,0,0,.756,1H57.9a.786.786,0,0,0,.722-.476l2.357-5.5a.787.787,0,0,0,.059-.4L60.258,96.7V91.656a6.547,6.547,0,0,0-.613-2.771h.231a1.17,1.17,0,0,1,1.169,1.169v4.332A2.36,2.36,0,0,0,63.4,96.742a.786.786,0,0,0,0-1.572.787.787,0,0,1-.786-.786V90.053a2.743,2.743,0,0,0-2.74-2.74H58.686c-.024,0-.047,0-.071,0Zm-1.233,21.212H55.8l1.285-4.5a.786.786,0,0,0-.053-.567l-1.572-3.143,0-.005a.794.794,0,0,0-.046-.079L53.84,97.878a.786.786,0,0,0-1.308.872l.757,1.136H42.661a6.268,6.268,0,0,1-3.969-1.44.786.786,0,0,0-1.222.654v3.768l-2.09,4.876h-.933l.658-4.6a.8.8,0,0,0,.008-.111V99.1a.786.786,0,0,0-.23-.556,7.825,7.825,0,0,0-1.3-1.035c-.833-.557-1.553-1.039-2.91-4.166a2.1,2.1,0,0,0-1.956-1.316H26.454a.77.77,0,0,1-.769-.769V90l1.341-1.341a.785.785,0,0,0,.147-.2l.238-.476a1.706,1.706,0,0,1,1.2-.916l2.728-.546a.786.786,0,0,0,.5-1.206l-.193-.29a4.293,4.293,0,0,1-.667-1.68,4.334,4.334,0,0,0,.555.44l.115.077A5.826,5.826,0,0,1,33.626,86.1a.786.786,0,0,0,.7.432h-.786a.786.786,0,1,0,0,1.572H35.2a2.146,2.146,0,0,1-1.662.786.786.786,0,1,0,0,1.572,3.715,3.715,0,0,0,3.1-1.657l.7-1.05a.784.784,0,0,0-.479-1.2l4.577.458a36.4,36.4,0,0,0,6.2.088l5.717-.408a4.966,4.966,0,0,1,3.466,1.079h0a4.96,4.96,0,0,1,1.87,3.891v5.086a.794.794,0,0,0,0,.087l.763,6.866Z" transform="translate(-24.113 -80.241)"/>
        <circle id="Elipse_11721" data-name="Elipse 11721" cx="0.786" cy="0.786" r="0.786" transform="translate(4.714 7.858)"/>
      </g>
    </g>
  </g>
</svg>
