<svg xmlns="http://www.w3.org/2000/svg" xmlns:xlink="http://www.w3.org/1999/xlink" width="75.987" height="75.987" viewBox="0 0 75.987 75.987">
  <defs>
    <filter id="Trazado_874925" x="0" y="0" width="75.987" height="75.987" filterUnits="userSpaceOnUse">
      <feOffset dy="3" input="SourceAlpha"/>
      <feGaussianBlur stdDeviation="3" result="blur"/>
      <feFlood flood-opacity="0.161"/>
      <feComposite operator="in" in2="blur"/>
      <feComposite in="SourceGraphic"/>
    </filter>
  </defs>
  <g id="Grupo_1108109" data-name="Grupo 1108109" transform="translate(-603.051 -3695)">
    <g id="Grupo_1107968" data-name="Grupo 1107968" transform="translate(612.051 3701)">
      <g transform="matrix(1, 0, 0, 1, -9, -6)" filter="url(#Trazado_874925)">
        <g id="Trazado_874925-2" data-name="Trazado 874925" transform="translate(9 6)" fill="#f1de5f">
          <path d="M 28.99347496032715 56.48728179931641 C 25.28121566772461 56.48728179931641 21.68080520629883 55.76057434082031 18.29223442077637 54.32732391357422 C 15.01851463317871 52.94265365600586 12.07809543609619 50.9600715637207 9.552655220031738 48.43463134765625 C 7.027215003967285 45.9091911315918 5.044634819030762 42.96877288818359 3.659965038299561 39.69505310058594 C 2.226714849472046 36.30648422241211 1.500005006790161 32.70607376098633 1.500005006790161 28.99381256103516 C 1.500005006790161 25.28121376037598 2.226714849472046 21.6808032989502 3.659965038299561 18.29223251342773 C 5.044634819030762 15.01851272583008 7.027215003967285 12.07809257507324 9.552655220031738 9.552652359008789 C 12.07809543609619 7.027212619781494 15.01851463317871 5.044632911682129 18.29223442077637 3.659962892532349 C 21.68080520629883 2.226712703704834 25.28121566772461 1.500002861022949 28.99347496032715 1.500002861022949 C 32.70573425292969 1.500002861022949 36.30615615844727 2.226712703704834 39.6947135925293 3.659962892532349 C 42.96844482421875 5.044632911682129 45.90886306762695 7.027212619781494 48.43430328369141 9.552652359008789 C 50.95973587036133 12.07809257507324 52.94232559204102 15.01851272583008 54.32699584960938 18.29223251342773 C 55.76024627685547 21.6808032989502 56.48695373535156 25.28121376037598 56.48695373535156 28.99347305297852 C 56.48695373535156 32.70607376098633 55.76024627685547 36.30648422241211 54.32699584960938 39.69505310058594 C 52.94232559204102 42.96877288818359 50.95973587036133 45.9091911315918 48.43430328369141 48.43463134765625 C 45.90886306762695 50.9600715637207 42.96844482421875 52.94265365600586 39.6947135925293 54.32732391357422 C 36.30615615844727 55.76057434082031 32.70573425292969 56.48728179931641 28.99347496032715 56.48728179931641 Z" stroke="none"/>
          <path d="M 28.99347496032715 3.000003814697266 C 25.48305511474609 3.000003814697266 22.0792350769043 3.686851501464844 18.87655639648438 5.041461944580078 C 15.78163528442383 6.350513458251953 13.0014762878418 8.225151062011719 10.61330413818359 10.61331176757812 C 8.225143432617188 13.00148391723633 6.350505828857422 15.78163146972656 5.041454315185547 18.87656402587891 C 3.686843872070312 22.07923126220703 2.999996185302734 25.48305130004883 2.999996185302734 28.99381256103516 C 2.999996185302734 32.50423431396484 3.686843872070312 35.90805053710938 5.041454315185547 39.11072540283203 C 6.350505828857422 42.20565414428711 8.225143432617188 44.98580169677734 10.61330413818359 47.37397384643555 C 13.0014762878418 49.76213073730469 15.78163528442383 51.63677215576172 18.87655639648438 52.94582366943359 C 22.0792350769043 54.30043411254883 25.48305511474609 54.98728179931641 28.99347496032715 54.98728179931641 C 32.5038948059082 54.98728179931641 35.90771484375 54.30043411254883 39.11038589477539 52.94582366943359 C 42.20531463623047 51.63677215576172 44.98546600341797 49.76213073730469 47.37363433837891 47.37397384643555 C 49.76179504394531 44.98580169677734 51.63643646240234 42.20565414428711 52.94548416137695 39.11072540283203 C 54.30009460449219 35.90805053710938 54.98694610595703 32.50423431396484 54.98694610595703 28.99347305297852 C 54.98694610595703 25.48305130004883 54.30009460449219 22.07923126220703 52.94548416137695 18.87656402587891 C 51.63643646240234 15.78163146972656 49.76179504394531 13.00148391723633 47.37363433837891 10.61331176757812 C 44.98546600341797 8.225151062011719 42.20531463623047 6.350513458251953 39.11038589477539 5.041461944580078 C 35.90771484375 3.686851501464844 32.5038948059082 3.000003814697266 28.99347496032715 3.000003814697266 M 28.99347496032715 3.814697265625e-06 C 45.00612640380859 3.814697265625e-06 57.98694610595703 12.9808235168457 57.98694610595703 28.99347305297852 L 57.98694610595703 28.99381256103516 C 57.98694610595703 45.00646209716797 45.00612640380859 57.98728179931641 28.99347496032715 57.98728179931641 C 12.98081588745117 57.98728179931641 -3.814697265625e-06 45.00646209716797 -3.814697265625e-06 28.99381256103516 L -3.814697265625e-06 28.99347305297852 C -3.814697265625e-06 12.9808235168457 12.98081588745117 3.814697265625e-06 28.99347496032715 3.814697265625e-06 Z" stroke="none" fill="#fff"/>
        </g>
      </g>
      <g id="Trazado_874923" data-name="Trazado 874923" transform="translate(0 0)" fill="none">
        <path d="M28.993,0A28.993,28.993,0,0,1,57.987,28.993h0A28.993,28.993,0,0,1,0,28.994H0A28.993,28.993,0,0,1,28.993,0Z" stroke="none"/>
        <path d="M 28.99347496032715 3.000003814697266 C 25.48305511474609 3.000003814697266 22.0792350769043 3.686851501464844 18.87655639648438 5.041461944580078 C 15.78163528442383 6.350513458251953 13.0014762878418 8.225151062011719 10.61330413818359 10.61331176757812 C 8.225143432617188 13.00148391723633 6.350505828857422 15.78163146972656 5.041454315185547 18.87656402587891 C 3.686843872070312 22.07923126220703 2.999996185302734 25.48305130004883 2.999996185302734 28.99381256103516 C 2.999996185302734 32.50423431396484 3.686843872070312 35.90805053710938 5.041454315185547 39.11072540283203 C 6.350505828857422 42.20565414428711 8.225143432617188 44.98580169677734 10.61330413818359 47.37397384643555 C 13.0014762878418 49.76213073730469 15.78163528442383 51.63677215576172 18.87655639648438 52.94582366943359 C 22.0792350769043 54.30043411254883 25.48305511474609 54.98728179931641 28.99347496032715 54.98728179931641 C 32.5038948059082 54.98728179931641 35.90771484375 54.30043411254883 39.11038589477539 52.94582366943359 C 42.20531463623047 51.63677215576172 44.98546600341797 49.76213073730469 47.37363433837891 47.37397384643555 C 49.76179504394531 44.98580169677734 51.63643646240234 42.20565414428711 52.94548416137695 39.11072540283203 C 54.30009460449219 35.90805053710938 54.98694610595703 32.50423431396484 54.98694610595703 28.99347305297852 C 54.98694610595703 25.48305130004883 54.30009460449219 22.07923126220703 52.94548416137695 18.87656402587891 C 51.63643646240234 15.78163146972656 49.76179504394531 13.00148391723633 47.37363433837891 10.61331176757812 C 44.98546600341797 8.225151062011719 42.20531463623047 6.350513458251953 39.11038589477539 5.041461944580078 C 35.90771484375 3.686851501464844 32.5038948059082 3.000003814697266 28.99347496032715 3.000003814697266 M 28.99347496032715 3.814697265625e-06 C 45.00612640380859 3.814697265625e-06 57.98694610595703 12.9808235168457 57.98694610595703 28.99347305297852 L 57.98694610595703 28.99381256103516 C 57.98694610595703 45.00646209716797 45.00612640380859 57.98728179931641 28.99347496032715 57.98728179931641 C 12.98081588745117 57.98728179931641 -3.814697265625e-06 45.00646209716797 -3.814697265625e-06 28.99381256103516 L -3.814697265625e-06 28.99347305297852 C -3.814697265625e-06 12.9808235168457 12.98081588745117 3.814697265625e-06 28.99347496032715 3.814697265625e-06 Z" stroke="none" fill="#fff"/>
      </g>
    </g>
    <g id="ternera" transform="translate(622.051 3713)">
      <path id="Trazado_898216" data-name="Trazado 898216" d="M44.226,122.632v6.558a10.484,10.484,0,0,1-.546,3.336c-2.236,6.776-12.251,9.4-17.688,4.775-1.687-1.437-2.883-3.356-4.584-4.78C17.491,129.24,7.5,128.708,7.5,122.042v-6.558Zm0,0" transform="translate(-6.946 -106.95)" fill="#f4375c"/>
      <path id="Trazado_898217" data-name="Trazado 898217" d="M44.226,22.627a10.484,10.484,0,0,1-.546,3.336c-2.236,6.776-12.251,9.4-17.688,4.775-1.687-1.437-2.883-3.356-4.584-4.78C17.491,22.678,7.5,22.145,7.5,15.479c0-3.736,3.426-5.73,6.567-6.774A29.486,29.486,0,0,1,25.761,7.649,24.711,24.711,0,0,1,30.5,8.5c6.326,1.8,13.7,7.163,13.725,14.132" transform="translate(-6.946 -6.945)" fill="#e9e9e9"/>
      <path id="Trazado_898218" data-name="Trazado 898218" d="M59.593,47.75A22.972,22.972,0,0,0,52.28,48.8a10.173,10.173,0,0,0-3.438,1.791,2.692,2.692,0,0,0-1.093,2.161c0,2.056,1.943,3.153,6.591,4.984a22.79,22.79,0,0,1,6.252,3.214,23.08,23.08,0,0,1,2.668,2.756,18.911,18.911,0,0,0,1.935,2.04,7.391,7.391,0,0,0,4.812,1.618c3.207,0,7.027-1.738,8.123-5.061a7.564,7.564,0,0,0,.4-2.394c-.01-2.948-1.933-5.341-3.543-6.83a20.43,20.43,0,0,0-8.022-4.452,21.842,21.842,0,0,0-4.17-.743C61.674,47.8,60.6,47.75,59.593,47.75Zm0,0" transform="translate(-44.221 -44.221)" fill="#ff5f7f"/>
      <path id="Trazado_898219" data-name="Trazado 898219" d="M49.228,53.494a2.692,2.692,0,0,1,1.093-2.161,10.173,10.173,0,0,1,3.438-1.791,22.972,22.972,0,0,1,7.312-1.054c1,0,2.081.047,3.2.139a21.845,21.845,0,0,1,4.17.743,20.03,20.03,0,0,1,2.75,1.012,20.527,20.527,0,0,0-4.228-1.751,21.868,21.868,0,0,0-4.17-.743c-1.119-.092-2.2-.139-3.2-.139A22.972,22.972,0,0,0,52.28,48.8a10.173,10.173,0,0,0-3.438,1.791,2.692,2.692,0,0,0-1.093,2.161c0,1.6,1.181,2.623,3.9,3.861C49.976,55.676,49.228,54.769,49.228,53.494Zm0,0" transform="translate(-44.221 -44.221)" fill="#f4375c"/>
      <path id="Trazado_898220" data-name="Trazado 898220" d="M312.9,157.329a3.532,3.532,0,1,1-3.531-3.532A3.531,3.531,0,0,1,312.9,157.329Zm0,0" transform="translate(-283.236 -142.431)" fill="#e9e9e9"/>
      <path id="Trazado_898221" data-name="Trazado 898221" d="M111.727,103.812v.8a.554.554,0,1,0,1.108,0v-.8a.554.554,0,1,0-1.108,0Zm0,0" transform="translate(-103.47 -95.627)"/>
      <path id="Trazado_898222" data-name="Trazado 898222" d="M231.359,103.812v.8a.554.554,0,1,0,1.108,0v-.8a.554.554,0,1,0-1.108,0Zm0,0" transform="translate(-214.263 -95.627)"/>
      <path id="Trazado_898223" data-name="Trazado 898223" d="M159.1,113.519a.921.921,0,0,1-1.347,0,.554.554,0,1,0-.835.729,2.029,2.029,0,0,0,3.016,0,.554.554,0,0,0-.835-.729Zm0,0" transform="translate(-145.193 -104.954)"/>
      <path id="Trazado_898224" data-name="Trazado 898224" d="M58.718,59.187a.555.555,0,0,0,.209.756,8.387,8.387,0,0,0,4.135,1.029c3.406,0,7.471-1.869,8.65-5.441a8.115,8.115,0,0,0,.424-2.57c-.011-3.147-2.03-5.671-3.721-7.235a21,21,0,0,0-8.246-4.578,22.392,22.392,0,0,0-4.276-.762c-1.134-.094-2.226-.141-3.245-.141a23.511,23.511,0,0,0-7.487,1.082,10.712,10.712,0,0,0-3.628,1.9,3.238,3.238,0,0,0-1.282,2.578,3.6,3.6,0,0,0,1.785,3.028,25.805,25.805,0,0,0,5.157,2.472,22.414,22.414,0,0,1,6.1,3.123,22.685,22.685,0,0,1,2.6,2.693c.391.453.794.921,1.2,1.343a.554.554,0,0,0,.8-.768c-.385-.4-.779-.857-1.16-1.3A23.572,23.572,0,0,0,54,53.579a23.179,23.179,0,0,0-6.4-3.3c-4.4-1.733-6.24-2.737-6.24-4.469a2.159,2.159,0,0,1,.9-1.744A9.627,9.627,0,0,1,45.51,42.38a22.43,22.43,0,0,1,7.138-1.026c.99,0,2.051.046,3.154.137a21.264,21.264,0,0,1,4.064.723,19.857,19.857,0,0,1,7.8,4.326c1.53,1.414,3.356,3.675,3.365,6.424a7,7,0,0,1-.368,2.218c-.767,2.326-3.623,4.68-7.6,4.68a7.28,7.28,0,0,1-3.589-.885A.555.555,0,0,0,58.718,59.187Zm0,0" transform="translate(-37.276 -37.272)"/>
      <path id="Trazado_898225" data-name="Trazado 898225" d="M302.422,154.468a4.086,4.086,0,1,0-4.086-4.086A4.09,4.09,0,0,0,302.422,154.468Zm0-7.063a2.977,2.977,0,1,1-2.977,2.977A2.981,2.981,0,0,1,302.422,147.405Zm0,0" transform="translate(-276.29 -135.486)"/>
      <path id="Trazado_898226" data-name="Trazado 898226" d="M33.157,6.271a24.074,24.074,0,0,0-9.45-5.254A24.834,24.834,0,0,0,19.938.263a.554.554,0,0,0-.135,1.1,23.787,23.787,0,0,1,3.6.72,22.93,22.93,0,0,1,9,5c1.964,1.814,4.308,4.779,4.321,8.6A9.8,9.8,0,0,1,36.1,19.14a9.1,9.1,0,0,1-2.961,3.947c-3.805,2.974-9.912,3.541-13.737.284-1.689-1.438-2.885-3.358-4.587-4.784A19.63,19.63,0,0,0,9.233,15.77C5.239,14.2,1.108,12.57,1.108,8.534a5.159,5.159,0,0,1,1.917-3.98A12.367,12.367,0,0,1,7.3,2.286a27.486,27.486,0,0,1,10.333-1.11A.554.554,0,1,0,17.692.07,28.561,28.561,0,0,0,6.946,1.234C2.4,2.745,0,5.269,0,8.534v6.558c0,4.791,4.689,6.638,8.826,8.267A20.18,20.18,0,0,1,14.107,26c1.7,1.422,2.893,3.341,4.58,4.777a10.908,10.908,0,0,0,7.1,2.46,13.4,13.4,0,0,0,6.968-1.968,10.317,10.317,0,0,0,4.506-5.515,11.068,11.068,0,0,0,.574-3.51v-6.56C37.823,12.341,36.206,9.087,33.157,6.271Zm3.569,15.97a9.981,9.981,0,0,1-.518,3.161,9.227,9.227,0,0,1-4.038,4.92,12.273,12.273,0,0,1-6.384,1.8,9.8,9.8,0,0,1-6.381-2.2c-1.689-1.438-2.885-3.358-4.587-4.784a20.849,20.849,0,0,0-5.586-2.818c-3.994-1.573-8.124-3.2-8.124-7.236V12.1l.011.015a8.183,8.183,0,0,0,1.91,1.86,26.146,26.146,0,0,0,5.8,2.825,20.18,20.18,0,0,1,5.28,2.636c1.7,1.422,2.893,3.341,4.58,4.777,3.923,3.34,10,3.1,14.195.413a10.728,10.728,0,0,0,3.844-4.146Zm0,0" transform="translate(0 0)"/>
    </g>
  </g>
</svg>
