<svg xmlns="http://www.w3.org/2000/svg" xmlns:xlink="http://www.w3.org/1999/xlink" width="75.987" height="75.987" viewBox="0 0 75.987 75.987">
  <defs>
    <filter id="Trazado_874925" x="0" y="0" width="75.987" height="75.987" filterUnits="userSpaceOnUse">
      <feOffset dy="3" input="SourceAlpha"/>
      <feGaussianBlur stdDeviation="3" result="blur"/>
      <feFlood flood-opacity="0.161"/>
      <feComposite operator="in" in2="blur"/>
      <feComposite in="SourceGraphic"/>
    </filter>
  </defs>
  <g id="Grupo_1108108" data-name="Grupo 1108108" transform="translate(-236.051 -3795)">
    <g id="Grupo_1107967" data-name="Grupo 1107967" transform="translate(245.051 3801)">
      <g transform="matrix(1, 0, 0, 1, -9, -6)" filter="url(#Trazado_874925)">
        <g id="Trazado_874925-2" data-name="Trazado 874925" transform="translate(9 6)" fill="#f1de5f">
          <path d="M 28.99347496032715 56.48728179931641 C 25.28121566772461 56.48728179931641 21.68080520629883 55.76057434082031 18.29223442077637 54.32732391357422 C 15.01851463317871 52.94265365600586 12.07809543609619 50.9600715637207 9.552655220031738 48.43463134765625 C 7.027215003967285 45.9091911315918 5.044634819030762 42.96877288818359 3.659965038299561 39.69505310058594 C 2.226714849472046 36.30648422241211 1.500005006790161 32.70607376098633 1.500005006790161 28.99381256103516 C 1.500005006790161 25.28121376037598 2.226714849472046 21.6808032989502 3.659965038299561 18.29223251342773 C 5.044634819030762 15.01851272583008 7.027215003967285 12.07809257507324 9.552655220031738 9.552652359008789 C 12.07809543609619 7.027212619781494 15.01851463317871 5.044632911682129 18.29223442077637 3.659962892532349 C 21.68080520629883 2.226712703704834 25.28121566772461 1.500002861022949 28.99347496032715 1.500002861022949 C 32.70573425292969 1.500002861022949 36.30615615844727 2.226712703704834 39.6947135925293 3.659962892532349 C 42.96844482421875 5.044632911682129 45.90886306762695 7.027212619781494 48.43430328369141 9.552652359008789 C 50.95973587036133 12.07809257507324 52.94232559204102 15.01851272583008 54.32699584960938 18.29223251342773 C 55.76024627685547 21.6808032989502 56.48695373535156 25.28121376037598 56.48695373535156 28.99347305297852 C 56.48695373535156 32.70607376098633 55.76024627685547 36.30648422241211 54.32699584960938 39.69505310058594 C 52.94232559204102 42.96877288818359 50.95973587036133 45.9091911315918 48.43430328369141 48.43463134765625 C 45.90886306762695 50.9600715637207 42.96844482421875 52.94265365600586 39.6947135925293 54.32732391357422 C 36.30615615844727 55.76057434082031 32.70573425292969 56.48728179931641 28.99347496032715 56.48728179931641 Z" stroke="none"/>
          <path d="M 28.99347496032715 3.000003814697266 C 25.48305511474609 3.000003814697266 22.0792350769043 3.686851501464844 18.87655639648438 5.041461944580078 C 15.78163528442383 6.350513458251953 13.0014762878418 8.225151062011719 10.61330413818359 10.61331176757812 C 8.225143432617188 13.00148391723633 6.350505828857422 15.78163146972656 5.041454315185547 18.87656402587891 C 3.686843872070312 22.07923126220703 2.999996185302734 25.48305130004883 2.999996185302734 28.99381256103516 C 2.999996185302734 32.50423431396484 3.686843872070312 35.90805053710938 5.041454315185547 39.11072540283203 C 6.350505828857422 42.20565414428711 8.225143432617188 44.98580169677734 10.61330413818359 47.37397384643555 C 13.0014762878418 49.76213073730469 15.78163528442383 51.63677215576172 18.87655639648438 52.94582366943359 C 22.0792350769043 54.30043411254883 25.48305511474609 54.98728179931641 28.99347496032715 54.98728179931641 C 32.5038948059082 54.98728179931641 35.90771484375 54.30043411254883 39.11038589477539 52.94582366943359 C 42.20531463623047 51.63677215576172 44.98546600341797 49.76213073730469 47.37363433837891 47.37397384643555 C 49.76179504394531 44.98580169677734 51.63643646240234 42.20565414428711 52.94548416137695 39.11072540283203 C 54.30009460449219 35.90805053710938 54.98694610595703 32.50423431396484 54.98694610595703 28.99347305297852 C 54.98694610595703 25.48305130004883 54.30009460449219 22.07923126220703 52.94548416137695 18.87656402587891 C 51.63643646240234 15.78163146972656 49.76179504394531 13.00148391723633 47.37363433837891 10.61331176757812 C 44.98546600341797 8.225151062011719 42.20531463623047 6.350513458251953 39.11038589477539 5.041461944580078 C 35.90771484375 3.686851501464844 32.5038948059082 3.000003814697266 28.99347496032715 3.000003814697266 M 28.99347496032715 3.814697265625e-06 C 45.00612640380859 3.814697265625e-06 57.98694610595703 12.9808235168457 57.98694610595703 28.99347305297852 L 57.98694610595703 28.99381256103516 C 57.98694610595703 45.00646209716797 45.00612640380859 57.98728179931641 28.99347496032715 57.98728179931641 C 12.98081588745117 57.98728179931641 -3.814697265625e-06 45.00646209716797 -3.814697265625e-06 28.99381256103516 L -3.814697265625e-06 28.99347305297852 C -3.814697265625e-06 12.9808235168457 12.98081588745117 3.814697265625e-06 28.99347496032715 3.814697265625e-06 Z" stroke="none" fill="#fff"/>
        </g>
      </g>
      <g id="Trazado_874923" data-name="Trazado 874923" transform="translate(0 0)" fill="none">
        <path d="M28.993,0A28.993,28.993,0,0,1,57.987,28.993h0A28.993,28.993,0,0,1,0,28.994H0A28.993,28.993,0,0,1,28.993,0Z" stroke="none"/>
        <path d="M 28.99347496032715 3.000003814697266 C 25.48305511474609 3.000003814697266 22.0792350769043 3.686851501464844 18.87655639648438 5.041461944580078 C 15.78163528442383 6.350513458251953 13.0014762878418 8.225151062011719 10.61330413818359 10.61331176757812 C 8.225143432617188 13.00148391723633 6.350505828857422 15.78163146972656 5.041454315185547 18.87656402587891 C 3.686843872070312 22.07923126220703 2.999996185302734 25.48305130004883 2.999996185302734 28.99381256103516 C 2.999996185302734 32.50423431396484 3.686843872070312 35.90805053710938 5.041454315185547 39.11072540283203 C 6.350505828857422 42.20565414428711 8.225143432617188 44.98580169677734 10.61330413818359 47.37397384643555 C 13.0014762878418 49.76213073730469 15.78163528442383 51.63677215576172 18.87655639648438 52.94582366943359 C 22.0792350769043 54.30043411254883 25.48305511474609 54.98728179931641 28.99347496032715 54.98728179931641 C 32.5038948059082 54.98728179931641 35.90771484375 54.30043411254883 39.11038589477539 52.94582366943359 C 42.20531463623047 51.63677215576172 44.98546600341797 49.76213073730469 47.37363433837891 47.37397384643555 C 49.76179504394531 44.98580169677734 51.63643646240234 42.20565414428711 52.94548416137695 39.11072540283203 C 54.30009460449219 35.90805053710938 54.98694610595703 32.50423431396484 54.98694610595703 28.99347305297852 C 54.98694610595703 25.48305130004883 54.30009460449219 22.07923126220703 52.94548416137695 18.87656402587891 C 51.63643646240234 15.78163146972656 49.76179504394531 13.00148391723633 47.37363433837891 10.61331176757812 C 44.98546600341797 8.225151062011719 42.20531463623047 6.350513458251953 39.11038589477539 5.041461944580078 C 35.90771484375 3.686851501464844 32.5038948059082 3.000003814697266 28.99347496032715 3.000003814697266 M 28.99347496032715 3.814697265625e-06 C 45.00612640380859 3.814697265625e-06 57.98694610595703 12.9808235168457 57.98694610595703 28.99347305297852 L 57.98694610595703 28.99381256103516 C 57.98694610595703 45.00646209716797 45.00612640380859 57.98728179931641 28.99347496032715 57.98728179931641 C 12.98081588745117 57.98728179931641 -3.814697265625e-06 45.00646209716797 -3.814697265625e-06 28.99381256103516 L -3.814697265625e-06 28.99347305297852 C -3.814697265625e-06 12.9808235168457 12.98081588745117 3.814697265625e-06 28.99347496032715 3.814697265625e-06 Z" stroke="none" fill="#fff"/>
      </g>
    </g>
    <g id="pierna-de-jamon" transform="translate(253.016 3809)">
      <g id="Grupo_1108106" data-name="Grupo 1108106" transform="translate(0.844 0.823)">
        <ellipse id="Elipse_11720" data-name="Elipse 11720" cx="1.632" cy="4.081" rx="1.632" ry="4.081" transform="translate(24.857 9.529) rotate(-45)" fill="#fff3db"/>
        <path id="Trazado_898207" data-name="Trazado 898207" d="M236.195,22.489c-1.594-1.594-2.369-3.4-1.732-4.04s2.446.138,4.04,1.732,2.369,3.4,1.732,4.04-2.446-.138-4.04-1.732Zm11.784,9.475c2.044-2.044-1.058-8.46-6.928-14.331s-12.286-8.972-14.331-6.928,1.058,8.46,6.928,14.331S245.934,34.008,247.979,31.964Z" transform="translate(-208.448 -10.076)" fill="#ff9eb1" fill-rule="evenodd"/>
        <path id="Trazado_898208" data-name="Trazado 898208" d="M187.512,32.114c-5.87-5.87-8.972-12.286-6.928-14.331a23.755,23.755,0,0,0-4.724,6.387c-.3,14.082,12.506,15.077,9.836,22.722,4.5-1.95,9.3-1,16.147-7.85C199.8,41.086,193.382,37.984,187.512,32.114Z" transform="translate(-162.312 -17.154)" fill="#ffe0e6" fill-rule="evenodd"/>
        <path id="Trazado_898209" data-name="Trazado 898209" d="M111.038,118.756c2.67-7.645-10.138-8.639-9.836-22.722-1.457,2.981-1.763,5.557-2.491,7.99a16.446,16.446,0,0,0,2.923,6.46c1.286,1.775-.911,4.174-5.108-2.076a13.4,13.4,0,0,1-1.086,1.222,11.139,11.139,0,0,0-.88.988c2.191,6.091,6.793,8.043,12.315,11.088q.164-.152.326-.314A12.081,12.081,0,0,1,111.038,118.756Z" transform="translate(-87.654 -89.018)" fill="#ff9eb1" fill-rule="evenodd"/>
        <path id="Trazado_898210" data-name="Trazado 898210" d="M123.743,200.376a16.447,16.447,0,0,1-2.923-6.46,12.711,12.711,0,0,1-2.185,4.384C122.832,204.55,125.029,202.151,123.743,200.376Z" transform="translate(-109.763 -178.91)" fill="#ffe0e6" fill-rule="evenodd"/>
        <path id="Trazado_898211" data-name="Trazado 898211" d="M86.333,285.781c-5.522-3.044-10.125-5-12.315-11.088a7.574,7.574,0,0,0-.658,8.97A10.165,10.165,0,0,0,76.7,287C79.634,288.775,83.225,288.658,86.333,285.781Z" transform="translate(-67.111 -253.094)" fill="#ffe0e6" fill-rule="evenodd"/>
        <path id="Trazado_898212" data-name="Trazado 898212" d="M19.535,387.924a10.165,10.165,0,0,1-3.342-3.342l-1.8,1.8a3.011,3.011,0,1,0-2.215,5.556,3.011,3.011,0,1,0,5.556-2.215Z" transform="translate(-9.944 -354.013)" fill="#fff3db" fill-rule="evenodd"/>
      </g>
      <g id="Grupo_1108107" data-name="Grupo 1108107" transform="translate(0.035 0.001)">
        <path id="Trazado_898213" data-name="Trazado 898213" d="M40.613,16.625C38.036,11.093,30.734,3.791,25.2,1.213,22.117-.278,19.815-.4,18.543.871A22.954,22.954,0,0,0,11.7,13.385c-.657,2.713-1.225,5.056-3.642,7.473a9.116,9.116,0,0,0-2.941,6.749,8.52,8.52,0,0,0,.97,3.642l-.977.977A3.827,3.827,0,0,0,2.431,39.4,3.827,3.827,0,0,0,9.6,36.722l.977-.977a8.52,8.52,0,0,0,3.642.97,9.109,9.109,0,0,0,6.749-2.941c5.934-5.652,11.277-1.641,19.99-10.493,1.263-1.273,1.144-3.574-.346-6.655ZM24.491,2.683a32.757,32.757,0,0,1,8.378,6.274,32.753,32.753,0,0,1,6.274,8.378c1.1,2.267,1.346,4.105.654,4.8s-2.531.442-4.8-.654a32.755,32.755,0,0,1-8.378-6.274,32.754,32.754,0,0,1-6.274-8.378c-1.1-2.267-1.346-4.105-.654-4.8,1-.884,3.207-.1,4.8.654ZM11.789,18.42a18.53,18.53,0,0,0,2.374,4.347.769.769,0,0,1,.19.667c-.185.089-1.471-.14-3.633-3.2A12.462,12.462,0,0,0,11.789,18.42ZM8.054,35.96a.816.816,0,0,0-.14.966,2.195,2.195,0,1,1-4.05,1.615.816.816,0,0,0-.578-.578A2.2,2.2,0,1,1,4.9,33.913a.816.816,0,0,0,.966-.14l1.106-1.106A11.081,11.081,0,0,0,9.16,34.854Zm6.215-.877c-5.138-.219-9.388-6.316-6.683-10.921,2.225,4.726,6.083,6.812,10.489,9.195l.539.292a6.993,6.993,0,0,1-4.346,1.435Zm13.788-6.538c-.911.221-1.805.437-2.691.721.358-3.11-1.728-5.266-3.754-7.361a.816.816,0,0,0-1.173,1.135c2.433,2.516,3.911,4.227,3.123,6.924A12.866,12.866,0,0,0,19.93,32.5c-.365-.2-.726-.394-1.078-.585-4.6-2.485-8.253-4.462-10.171-9.342.3-.352.662-.691.973-1.032,2.1,2.859,3.635,3.532,4.614,3.532.058,0,.114,0,.167-.007a1.642,1.642,0,0,0,1.4-.957,2.328,2.328,0,0,0-.353-2.3,15.586,15.586,0,0,1-2.744-5.943c.4-1.4.683-2.809,1.087-4.23a16.877,16.877,0,0,0,1.9,5.513.816.816,0,0,0,1.428-.791A16.29,16.29,0,0,1,15.2,8.023a20.545,20.545,0,0,1,2.534-3.849c1.334,7.309,12.6,18.576,19.913,19.913a21.031,21.031,0,0,1-9.6,4.457Z" transform="translate(-0.035 -0.001)"/>
        <path id="Trazado_898214" data-name="Trazado 898214" d="M322.032,107.692a1.638,1.638,0,0,0,1.2-.469c1.19-1.19-.064-3.527-1.732-5.195s-4-2.921-5.195-1.732.064,3.527,1.732,5.195C319.25,106.7,320.811,107.692,322.032,107.692Zm-4.554-6.227c1.5-.021,4.614,3.1,4.589,4.589C320.565,106.076,317.452,102.954,317.478,101.466Z" transform="translate(-290.062 -91.679)"/>
        <path id="Trazado_898215" data-name="Trazado 898215" d="M217.512,232.228h0a.816.816,0,1,0,.817.816A.816.816,0,0,0,217.512,232.228Z" transform="translate(-199.011 -213.272)"/>
      </g>
    </g>
  </g>
</svg>
