<svg xmlns="http://www.w3.org/2000/svg" xmlns:xlink="http://www.w3.org/1999/xlink" width="75.987" height="75.987" viewBox="0 0 75.987 75.987">
  <defs>
    <filter id="Trazado_874925" x="0" y="0" width="75.987" height="75.987" filterUnits="userSpaceOnUse">
      <feOffset dy="3" input="SourceAlpha"/>
      <feGaussianBlur stdDeviation="3" result="blur"/>
      <feFlood flood-opacity="0.161"/>
      <feComposite operator="in" in2="blur"/>
      <feComposite in="SourceGraphic"/>
    </filter>
  </defs>
  <g id="Grupo_1108105" data-name="Grupo 1108105" transform="translate(-446.051 -3795)">
    <g id="Grupo_1107966" data-name="Grupo 1107966" transform="translate(455.051 3801)">
      <g transform="matrix(1, 0, 0, 1, -9, -6)" filter="url(#Trazado_874925)">
        <g id="Trazado_874925-2" data-name="Trazado 874925" transform="translate(9 6)" fill="#f1de5f">
          <path d="M 28.99347496032715 56.48728179931641 C 25.28121566772461 56.48728179931641 21.68080520629883 55.76057434082031 18.29223442077637 54.32732391357422 C 15.01851463317871 52.94265365600586 12.07809543609619 50.9600715637207 9.552655220031738 48.43463134765625 C 7.027215003967285 45.9091911315918 5.044634819030762 42.96877288818359 3.659965038299561 39.69505310058594 C 2.226714849472046 36.30648422241211 1.500005006790161 32.70607376098633 1.500005006790161 28.99381256103516 C 1.500005006790161 25.28121376037598 2.226714849472046 21.6808032989502 3.659965038299561 18.29223251342773 C 5.044634819030762 15.01851272583008 7.027215003967285 12.07809257507324 9.552655220031738 9.552652359008789 C 12.07809543609619 7.027212619781494 15.01851463317871 5.044632911682129 18.29223442077637 3.659962892532349 C 21.68080520629883 2.226712703704834 25.28121566772461 1.500002861022949 28.99347496032715 1.500002861022949 C 32.70573425292969 1.500002861022949 36.30615615844727 2.226712703704834 39.6947135925293 3.659962892532349 C 42.96844482421875 5.044632911682129 45.90886306762695 7.027212619781494 48.43430328369141 9.552652359008789 C 50.95973587036133 12.07809257507324 52.94232559204102 15.01851272583008 54.32699584960938 18.29223251342773 C 55.76024627685547 21.6808032989502 56.48695373535156 25.28121376037598 56.48695373535156 28.99347305297852 C 56.48695373535156 32.70607376098633 55.76024627685547 36.30648422241211 54.32699584960938 39.69505310058594 C 52.94232559204102 42.96877288818359 50.95973587036133 45.9091911315918 48.43430328369141 48.43463134765625 C 45.90886306762695 50.9600715637207 42.96844482421875 52.94265365600586 39.6947135925293 54.32732391357422 C 36.30615615844727 55.76057434082031 32.70573425292969 56.48728179931641 28.99347496032715 56.48728179931641 Z" stroke="none"/>
          <path d="M 28.99347496032715 3.000003814697266 C 25.48305511474609 3.000003814697266 22.0792350769043 3.686851501464844 18.87655639648438 5.041461944580078 C 15.78163528442383 6.350513458251953 13.0014762878418 8.225151062011719 10.61330413818359 10.61331176757812 C 8.225143432617188 13.00148391723633 6.350505828857422 15.78163146972656 5.041454315185547 18.87656402587891 C 3.686843872070312 22.07923126220703 2.999996185302734 25.48305130004883 2.999996185302734 28.99381256103516 C 2.999996185302734 32.50423431396484 3.686843872070312 35.90805053710938 5.041454315185547 39.11072540283203 C 6.350505828857422 42.20565414428711 8.225143432617188 44.98580169677734 10.61330413818359 47.37397384643555 C 13.0014762878418 49.76213073730469 15.78163528442383 51.63677215576172 18.87655639648438 52.94582366943359 C 22.0792350769043 54.30043411254883 25.48305511474609 54.98728179931641 28.99347496032715 54.98728179931641 C 32.5038948059082 54.98728179931641 35.90771484375 54.30043411254883 39.11038589477539 52.94582366943359 C 42.20531463623047 51.63677215576172 44.98546600341797 49.76213073730469 47.37363433837891 47.37397384643555 C 49.76179504394531 44.98580169677734 51.63643646240234 42.20565414428711 52.94548416137695 39.11072540283203 C 54.30009460449219 35.90805053710938 54.98694610595703 32.50423431396484 54.98694610595703 28.99347305297852 C 54.98694610595703 25.48305130004883 54.30009460449219 22.07923126220703 52.94548416137695 18.87656402587891 C 51.63643646240234 15.78163146972656 49.76179504394531 13.00148391723633 47.37363433837891 10.61331176757812 C 44.98546600341797 8.225151062011719 42.20531463623047 6.350513458251953 39.11038589477539 5.041461944580078 C 35.90771484375 3.686851501464844 32.5038948059082 3.000003814697266 28.99347496032715 3.000003814697266 M 28.99347496032715 3.814697265625e-06 C 45.00612640380859 3.814697265625e-06 57.98694610595703 12.9808235168457 57.98694610595703 28.99347305297852 L 57.98694610595703 28.99381256103516 C 57.98694610595703 45.00646209716797 45.00612640380859 57.98728179931641 28.99347496032715 57.98728179931641 C 12.98081588745117 57.98728179931641 -3.814697265625e-06 45.00646209716797 -3.814697265625e-06 28.99381256103516 L -3.814697265625e-06 28.99347305297852 C -3.814697265625e-06 12.9808235168457 12.98081588745117 3.814697265625e-06 28.99347496032715 3.814697265625e-06 Z" stroke="none" fill="#fff"/>
        </g>
      </g>
      <g id="Trazado_874923" data-name="Trazado 874923" transform="translate(0 0)" fill="none">
        <path d="M28.993,0A28.993,28.993,0,0,1,57.987,28.993h0A28.993,28.993,0,0,1,0,28.994H0A28.993,28.993,0,0,1,28.993,0Z" stroke="none"/>
        <path d="M 28.99347496032715 3.000003814697266 C 25.48305511474609 3.000003814697266 22.0792350769043 3.686851501464844 18.87655639648438 5.041461944580078 C 15.78163528442383 6.350513458251953 13.0014762878418 8.225151062011719 10.61330413818359 10.61331176757812 C 8.225143432617188 13.00148391723633 6.350505828857422 15.78163146972656 5.041454315185547 18.87656402587891 C 3.686843872070312 22.07923126220703 2.999996185302734 25.48305130004883 2.999996185302734 28.99381256103516 C 2.999996185302734 32.50423431396484 3.686843872070312 35.90805053710938 5.041454315185547 39.11072540283203 C 6.350505828857422 42.20565414428711 8.225143432617188 44.98580169677734 10.61330413818359 47.37397384643555 C 13.0014762878418 49.76213073730469 15.78163528442383 51.63677215576172 18.87655639648438 52.94582366943359 C 22.0792350769043 54.30043411254883 25.48305511474609 54.98728179931641 28.99347496032715 54.98728179931641 C 32.5038948059082 54.98728179931641 35.90771484375 54.30043411254883 39.11038589477539 52.94582366943359 C 42.20531463623047 51.63677215576172 44.98546600341797 49.76213073730469 47.37363433837891 47.37397384643555 C 49.76179504394531 44.98580169677734 51.63643646240234 42.20565414428711 52.94548416137695 39.11072540283203 C 54.30009460449219 35.90805053710938 54.98694610595703 32.50423431396484 54.98694610595703 28.99347305297852 C 54.98694610595703 25.48305130004883 54.30009460449219 22.07923126220703 52.94548416137695 18.87656402587891 C 51.63643646240234 15.78163146972656 49.76179504394531 13.00148391723633 47.37363433837891 10.61331176757812 C 44.98546600341797 8.225151062011719 42.20531463623047 6.350513458251953 39.11038589477539 5.041461944580078 C 35.90771484375 3.686851501464844 32.5038948059082 3.000003814697266 28.99347496032715 3.000003814697266 M 28.99347496032715 3.814697265625e-06 C 45.00612640380859 3.814697265625e-06 57.98694610595703 12.9808235168457 57.98694610595703 28.99347305297852 L 57.98694610595703 28.99381256103516 C 57.98694610595703 45.00646209716797 45.00612640380859 57.98728179931641 28.99347496032715 57.98728179931641 C 12.98081588745117 57.98728179931641 -3.814697265625e-06 45.00646209716797 -3.814697265625e-06 28.99381256103516 L -3.814697265625e-06 28.99347305297852 C -3.814697265625e-06 12.9808235168457 12.98081588745117 3.814697265625e-06 28.99347496032715 3.814697265625e-06 Z" stroke="none" fill="#fff"/>
      </g>
    </g>
    <g id="carne_2_" data-name="carne (2)" transform="translate(430.051 3809)">
      <path id="Trazado_898199" data-name="Trazado 898199" d="M47.178,29.6c0-3.584-1.162-14.288-1.162-14.288a4.91,4.91,0,0,1,5.36-5.285s8.5,1.081,11.352,1.081S74.08,10.022,74.08,10.022a4.91,4.91,0,0,1,5.36,5.285s-1.162,10.7-1.162,14.288S79.44,43.883,79.44,43.883a4.91,4.91,0,0,1-5.36,5.285s-8.5-1.081-11.352-1.081-11.352,1.081-11.352,1.081a4.91,4.91,0,0,1-5.36-5.285S47.178,33.179,47.178,29.6Z" transform="translate(-9.203 -9.203)" fill="#ccf5fc"/>
      <path id="Trazado_898200" data-name="Trazado 898200" d="M87.005,81.891S88.19,70.982,88.19,67.33s-1.184-14.561-1.184-14.561a1.636,1.636,0,0,1,1.786-1.761s8.74,1.111,11.671,1.111,11.671-1.111,11.671-1.111a1.636,1.636,0,0,1,1.786,1.761s-1.184,10.909-1.184,14.561,1.184,14.561,1.184,14.561a1.636,1.636,0,0,1-1.786,1.761s-8.74-1.111-11.671-1.111-11.671,1.111-11.671,1.111A1.636,1.636,0,0,1,87.005,81.891Z" transform="translate(-46.937 -46.938)" fill="#fff"/>
      <path id="Trazado_898201" data-name="Trazado 898201" d="M168.908,115.052a5.967,5.967,0,0,1-2.039-5.134c.066-.908.3-1.955-.556-2.889A2.985,2.985,0,0,0,164.04,106a3.824,3.824,0,0,0-2.422,1.362,22.833,22.833,0,0,0-5.618,14.1,7.967,7.967,0,1,0,12.908-6.41Z" transform="translate(-110.441 -97.556)" fill="#ff7b79"/>
      <circle id="Elipse_11718" data-name="Elipse 11718" cx="1.546" cy="1.546" r="1.546" transform="translate(51.978 23.775)" fill="#fff"/>
      <g id="Grupo_1108104" data-name="Grupo 1108104" transform="translate(36 0)">
        <circle id="Elipse_11719" data-name="Elipse 11719" cx="0.797" cy="0.797" r="0.797" transform="translate(32.736 26.739)"/>
        <path id="Trazado_898202" data-name="Trazado 898202" d="M70.4,30.52a.8.8,0,0,0-1.326.668v0c.187,1.894.38,3.787.38,3.9a4.116,4.116,0,0,1-4.106,4.1c-.128,0-.26-.006-.39-.018-.088-.011-2.186-.276-4.6-.54-1.448-.158-2.723-.284-3.788-.374-1.368-.116-2.363-.171-3.044-.171s-1.676.056-3.044.171c-3.405.288-7.892.851-8.393.914-.13.012-.261.018-.39.018a4.116,4.116,0,0,1-4.106-4.1c0-.109.331-3.3.6-6.133.386-4.17.583-7.051.584-8.562s-.2-4.391-.584-8.562c-.255-2.739-.594-6.024-.594-6.133a4.114,4.114,0,0,1,4.1-4.1c.13,0,2.52.289,5,.558,1.45.158,2.724.284,3.788.374,1.365.115,2.36.171,3.044.171s1.679-.057,3.044-.171c2.36-.2,5.241-.531,6.942-.736.835-.1,1.712-.2,1.841-.2a4.115,4.115,0,0,1,4.1,4.1c0,.459-.08.95-.145,1.582-.113,1.091-.281,2.746-.449,4.551-.386,4.171-.583,7.051-.584,8.562,0,.815.056,2,.17,3.62a.8.8,0,0,0,.822.739.766.766,0,0,0,.574-.273.792.792,0,0,0,.193-.578c-.109-1.537-.167-2.75-.166-3.508,0-1.914.361-6.093.578-8.414.119-1.286.253-2.654.4-4.064.091-.88.2-1.76.2-2.216A5.681,5.681,0,0,0,69.376,1.67,5.686,5.686,0,0,0,65.351,0c-.182,0-1.174.1-1.943.2-1.29.155-3.225.38-5.118.568-1.547.155-3.628.338-4.756.338h-.018c-.618,0-1.621-.057-2.9-.166C48.771.781,46.6.542,45.1.37,44.221.268,41.882,0,41.7,0A5.7,5.7,0,0,0,36,5.7c0,.155.111,1.334.2,2.216.167,1.631.409,4.072.611,6.45.167,1.962.366,4.6.365,6.028,0,1.917-.361,6.095-.578,8.414-.119,1.29-.566,5.667-.579,5.785l0,.023c-.013.155-.019.315-.019.472a5.7,5.7,0,0,0,5.7,5.7c.182,0,.577-.029.577-.029.056-.007,4.6-.549,6.484-.736,1.546-.154,3.634-.338,4.764-.338.62,0,1.631.057,2.911.166,1.847.156,4.016.4,5.511.568.865.1,2.856.343,2.856.343.182.018.367.026.55.026a5.7,5.7,0,0,0,5.7-5.7c0-.157-.281-2.981-.387-4.054a.8.8,0,0,0-.259-.513Z" transform="translate(-36 0)"/>
        <path id="Trazado_898203" data-name="Trazado 898203" d="M104.805,41.717a2.453,2.453,0,0,0-1.952-.689c-.087.011-8.736,1.106-11.583,1.106s-11.5-1.095-11.583-1.106a2.432,2.432,0,0,0-2.667,2.628c.012.109,1.181,10.919,1.181,14.486S77.033,72.52,77.021,72.628a2.432,2.432,0,0,0,2.667,2.628c.087-.011,8.736-1.106,11.583-1.106,2.367,0,8.744.757,10.877,1.018.433.053.873.1.951.1a2.432,2.432,0,0,0,2.422-2.64c-.012-.109-1.181-10.919-1.181-14.486s1.169-14.378,1.181-14.486A2.448,2.448,0,0,0,104.805,41.717Zm-1.119,31.716a.827.827,0,0,1-.659.239c-.526-.067-8.841-1.116-11.757-1.116S80.04,73.606,79.514,73.672a.839.839,0,0,1-.907-.9c.065-.6,1.188-11.01,1.188-14.635s-1.123-14.036-1.188-14.635a.839.839,0,0,1,.907-.9c.527.067,8.841,1.115,11.757,1.115s11.23-1.049,11.756-1.116a.839.839,0,0,1,.907.9c-.065.6-1.188,11.01-1.188,14.635s1.123,14.036,1.188,14.635a.825.825,0,0,1-.248.656Z" transform="translate(-73.746 -37.75)"/>
        <path id="Trazado_898204" data-name="Trazado 898204" d="M228.39,288a2.39,2.39,0,1,0,2.39,2.39A2.392,2.392,0,0,0,228.39,288Zm0,3.186a.8.8,0,1,1,.8-.8A.8.8,0,0,1,228.39,291.186Z" transform="translate(-210.865 -265.059)"/>
        <path id="Trazado_898205" data-name="Trazado 898205" d="M145.184,112.759l-.084.051c.01-.183.016-.367.016-.553a9.073,9.073,0,0,0-3.279-6.994,5.582,5.582,0,0,1-1.458-2.037l4.669-2.8a.8.8,0,1,0-.82-1.366l-4.19,2.514c-.011-.258.031-1.017.041-1.128A3.666,3.666,0,0,0,136.425,96a4.6,4.6,0,0,0-3,1.612,22.022,22.022,0,0,0-4.138,6.728c-.048.12-.095.24-.141.36l-2.284,1.371a.8.8,0,1,0,.82,1.366l.692-.415a19.838,19.838,0,0,0-.783,5.238,9.546,9.546,0,0,0,1.257,4.76l-2.464,1.478a.8.8,0,1,0,.82,1.366l2.554-1.533a9.051,9.051,0,0,0,1.267,1.252l-1.542.951a.8.8,0,1,0,.836,1.356l2.178-1.343a8.35,8.35,0,0,0,3.857.944,8.853,8.853,0,0,0,8.4-6.614l1.247-.748a.8.8,0,1,0-.82-1.366Zm-1.819,1.091-3.359,2.015a.8.8,0,1,0,.82,1.366l1.636-.982a7.09,7.09,0,0,1-6.109,3.644,6.743,6.743,0,0,1-2.2-.37l.949-.585a.8.8,0,0,0-.836-1.356l-1.781,1.1a7.35,7.35,0,0,1-1.338-1.185l1.239-.743a.8.8,0,1,0-.82-1.366l-1.348.809a7.967,7.967,0,0,1-1.03-3.94,19.687,19.687,0,0,1,1.263-6.482l2.413-1.448a.8.8,0,1,0-.82-1.366l-.534.321a18.9,18.9,0,0,1,3.079-4.579,3.078,3.078,0,0,1,1.846-1.113h.009a2.2,2.2,0,0,1,1.672.77c.485.531.461,1.082.381,1.936-.011.121-.022.241-.031.359a6.783,6.783,0,0,0,2.292,5.776,7.5,7.5,0,0,1,2.769,5.826A8.117,8.117,0,0,1,143.366,113.851Z" transform="translate(-118.829 -88.35)"/>
        <path id="Trazado_898206" data-name="Trazado 898206" d="M199.156,223.885a.8.8,0,0,0-1.093-.273l-5.178,3.107a.8.8,0,1,0,.82,1.366l5.178-3.107A.8.8,0,0,0,199.156,223.885Z" transform="translate(-180.032 -205.694)"/>
      </g>
    </g>
  </g>
</svg>
