<svg xmlns="http://www.w3.org/2000/svg" width="61.617" height="44.023" viewBox="0 0 61.617 44.023">
  <g id="carne-de-cordero" transform="translate(0 -73.107)">
    <g id="Grupo_1108119" data-name="Grupo 1108119" transform="translate(1.203 74.308)">
      <path id="Trazado_898245" data-name="Trazado 898245" d="M20.164,345.605a27.334,27.334,0,0,1-4.47-5.823c-1.494,1.465-3.04,2.956-4.639,4.555a3.62,3.62,0,0,0,5.119,5.119C17.684,347.948,18.99,346.673,20.164,345.605Z" transform="translate(-10 -308.893)" fill="#ff9eb1" fill-rule="evenodd"/>
      <path id="Trazado_898246" data-name="Trazado 898246" d="M61.8,301.614a30.616,30.616,0,0,1,3.549-2.858c-.677-2.459-.336-4.326-.976-6.44a9.008,9.008,0,0,0-1.189-2.455l-.059-.087c-1.841,2.095-3.771,4.033-5.795,6.018a27.326,27.326,0,0,0,4.47,5.823Z" transform="translate(-51.63 -264.902)" fill="#ff5d7d" fill-rule="evenodd"/>
      <path id="Trazado_898247" data-name="Trazado 898247" d="M107,265.061a40.6,40.6,0,0,0,.7,5.24,10.753,10.753,0,0,1,6.622-1.992l-.022-.1a19.091,19.091,0,0,0-5.674-10.779c-1.02,1.379-2.069,2.663-3.15,3.892l.059.087A8.733,8.733,0,0,1,106.994,265Z" transform="translate(-93.992 -236.447)" fill="#ff9eb1" fill-rule="evenodd"/>
      <path id="Trazado_898248" data-name="Trazado 898248" d="M131.656,177.138a19.091,19.091,0,0,1,5.674,10.779l.023.1a37.326,37.326,0,0,1,5.971.746c3.028.553,6.611-.462,10.453-2.428-3.534-3.86-8.117-6.991-11.3-13.964q-.122-.268-.242-.543a35.025,35.025,0,0,0-2.861-5.576l-.069-.1c-2.219,2.813-4.162,5.8-5.817,8.342C132.889,175.419,132.278,176.3,131.656,177.138Z" transform="translate(-117.017 -156.158)" fill="#ff5d7d" fill-rule="evenodd"/>
      <path id="Trazado_898249" data-name="Trazado 898249" d="M198.406,101.8c3.181,6.972,7.764,10.1,11.3,13.964a53.693,53.693,0,0,0,5.638-3.391,9.84,9.84,0,0,0-.823-1.608c-1.647-2.506-4.215-3.893-4.783-5.845-1.7-5.825.741-8.646,3.364-5.242,2.918,3.787,6.22,5.438,8.268,8.23,1.2-.954,2.4-1.939,3.587-2.938-5.1-12.238-10.38-14.375-14.67-17.332a19.568,19.568,0,0,1-2.181-1.711,14.394,14.394,0,0,0-4.258,1.651c1.841,5.87-.132,8.58-5.572,4.669l-.1-.072c-1.028,1.074-2.008,2.224-2.94,3.405l.069.1a35.014,35.014,0,0,1,2.861,5.576q.119.276.242.544Z" transform="translate(-172.945 -85.584)" fill="#ff9eb1" fill-rule="evenodd"/>
      <g id="Grupo_1108118" data-name="Grupo 1108118" transform="translate(25.229 0)">
        <path id="Trazado_898250" data-name="Trazado 898250" d="M219.666,104.249c5.515,4.015,7.523,1.308,5.671-4.6A25.655,25.655,0,0,0,219.666,104.249Z" transform="translate(-219.666 -97.658)" fill="#ff5d7d" fill-rule="evenodd"/>
        <path id="Trazado_898251" data-name="Trazado 898251" d="M315,189.46c-2.623-3.4-5.061-.583-3.364,5.242.569,1.952,3.137,3.34,4.783,5.845a9.838,9.838,0,0,1,.823,1.608c1.992-1.353,4.012-2.866,6.025-4.465-2.048-2.791-5.35-4.443-8.268-8.23Z" transform="translate(-300.073 -175.366)" fill="#ff5d7d" fill-rule="evenodd"/>
        <path id="Trazado_898252" data-name="Trazado 898252" d="M304.366,85.133c4.29,2.957,9.572,5.094,14.67,17.332,1.448-1.218,2.882-2.459,4.285-3.692,10.238-8.993-8.959-17.191-20.512-15.461q-.314.047-.625.11A19.61,19.61,0,0,0,304.366,85.133Z" transform="translate(-292.255 -83.08)" fill="#ff5d7d" fill-rule="evenodd"/>
      </g>
    </g>
    <g id="Grupo_1108120" data-name="Grupo 1108120" transform="translate(0 73.108)">
      <path id="Trazado_898253" data-name="Trazado 898253" d="M61.005,82.158C58.1,75.9,45.271,72.083,36.809,73.35,27.94,74.677,21.173,85.07,16.7,91.948l-.027.042c-4.371,6.752-9.7,11.35-15.26,16.911a4.823,4.823,0,0,0,6.821,6.821c1.435-1.435,2.672-2.649,3.778-3.668a1.209,1.209,0,0,0,.336-.307c5.343-4.847,7.63-4.984,14.95-3.648,8.312,1.52,19.812-7.367,31-17.194,3.977-3.493,3.67-6.685,2.713-8.748ZM31.15,81.49c-.284.2-1.169.21-2.823-.776A25.121,25.121,0,0,1,31.362,78.2c.445,2.12.091,3.073-.212,3.29ZM15.764,106.268c-.071-.536-.111-1.055-.15-1.564a11.509,11.509,0,0,0-1.429-5.413q.894-1.046,1.763-2.156a17.12,17.12,0,0,1,4.094,7.891A11.126,11.126,0,0,0,15.764,106.268Zm-3.291-5.048a10.212,10.212,0,0,1,.741,3.668,21.1,21.1,0,0,0,.344,2.764c-.678.494-1.385,1.065-2.14,1.72a28.566,28.566,0,0,1-2.988-3.994c1.378-1.361,2.728-2.727,4.043-4.158Zm-5.946,12.8a2.439,2.439,0,0,1-3.417,0h0a2.419,2.419,0,0,1,0-3.417c1.222-1.222,2.392-2.36,3.567-3.507a29.956,29.956,0,0,0,2.96,3.892c-.948.892-1.975,1.9-3.109,3.032Zm21.2-8.289a45.676,45.676,0,0,0-5.212-.719,19.832,19.832,0,0,0-5.1-9.841q.645-.906,1.273-1.868l.027-.042c1.347-2.069,2.914-4.475,4.674-6.831.578,1.042,1.209,2.361,1.933,4.03.109.251.226.511.348.774a1.2,1.2,0,0,0,2.182-1.015c-.115-.247-.22-.481-.322-.716a41.748,41.748,0,0,0-2.548-5.118c.53-.65,1.074-1.287,1.633-1.9,2.125,1.327,4.163,2.157,5.94.964,1.052-.754,2.032-2.5.978-6.538a12.958,12.958,0,0,1,2.5-.946C42.482,81,46.264,81.09,51.754,93.343q-.974.811-1.951,1.6a29.952,29.952,0,0,0-2.969-2.769,29.245,29.245,0,0,1-4.522-4.508c-1.968-2.554-3.747-1.927-4.245-1.674-1.881.956-2.363,4.09-1.228,7.987a8.689,8.689,0,0,0,2.61,3.541,16.159,16.159,0,0,1,2.323,2.629c.1.157.2.329.3.52-1.312.865-2.6,1.65-3.86,2.332-.719-.748-1.463-1.469-2.241-2.222-.694-.672-1.412-1.368-2.12-2.093a1.2,1.2,0,0,0-1.723,1.681c.731.749,1.462,1.457,2.168,2.141.571.553,1.122,1.087,1.654,1.623-3.054,1.383-5.858,2.034-8.23,1.6ZM44.073,99.3c-.095-.168-.191-.326-.29-.477A18.294,18.294,0,0,0,41.13,95.8a7.124,7.124,0,0,1-1.981-2.492c-.934-3.2-.381-4.971.007-5.167.045-.023.513.043,1.248,1a31.643,31.643,0,0,0,4.867,4.87,29.227,29.227,0,0,1,2.642,2.437c-1.288,1-2.572,1.964-3.841,2.861ZM56.7,89.1c-1,.879-2.014,1.759-3.033,2.629C48.6,80.8,44.54,78.965,39.449,75.522,48.024,75.015,65.648,81.236,56.7,89.1Z" transform="translate(0 -73.108)"/>
      <path id="Trazado_898254" data-name="Trazado 898254" d="M236.243,248.4h0a1.2,1.2,0,1,0,1.2,1.2A1.2,1.2,0,0,0,236.242,248.4Z" transform="translate(-206.757 -227.305)"/>
    </g>
  </g>
</svg>
