<svg xmlns="http://www.w3.org/2000/svg" xmlns:xlink="http://www.w3.org/1999/xlink" width="208" height="156" viewBox="0 0 208 156">
  <defs>
    <filter id="Rect치ngulo_402715" x="0" y="0" width="208" height="156" filterUnits="userSpaceOnUse">
      <feOffset dy="3" input="SourceAlpha"/>
      <feGaussianBlur stdDeviation="3" result="blur"/>
      <feFlood flood-opacity="0.161"/>
      <feComposite operator="in" in2="blur"/>
      <feComposite in="SourceGraphic"/>
    </filter>
  </defs>
  <g id="Grupo_1108137" data-name="Grupo 1108137" transform="translate(-954.051 -8363)">
    <g transform="matrix(1, 0, 0, 1, 954.05, 8363)" filter="url(#Rect치ngulo_402715)">
      <g id="Rect치ngulo_402715-2" data-name="Rect치ngulo 402715" transform="translate(9 6)" fill="#f3fbf6" stroke="#fff" stroke-width="3">
        <rect width="190" height="138" rx="8" stroke="none"/>
        <rect x="1.5" y="1.5" width="187" height="135" rx="6.5" fill="none"/>
      </g>
    </g>
    <g id="carne-de-res-" transform="translate(880.768 8237.689)">
      <g id="Grupo_1108132" data-name="Grupo 1108132" transform="translate(98.283 191.678)">
        <path id="Trazado_898255" data-name="Trazado 898255" d="M103.284,261.569v27.522a14.985,14.985,0,0,0,3.33,9.991c12.488,14.668,49.477-13.915,77.783-3.013,28.346,10.9,70.727,1.585,71.6-23.47V244.046Z" transform="translate(-100.783 -241.546)" fill="#e6648d"/>
        <path id="Trazado_898256" data-name="Trazado 898256" d="M115.106,303.367h0c-5.717,0-9.935-1.69-12.893-5.166a17.369,17.369,0,0,1-3.926-11.611V259.068a2.5,2.5,0,0,1,2.215-2.484l152.711-17.523a2.5,2.5,0,0,1,2.785,2.483V270.1q0,.044,0,.087c-.327,9.384-5.8,17.292-15.837,22.866-8.725,4.848-20.282,7.518-32.542,7.518A74.933,74.933,0,0,1,181,295.9a38.06,38.06,0,0,0-13.893-2.377c-9.855,0-20.4,2.9-29.71,5.467C129.224,301.242,121.507,303.367,115.106,303.367ZM103.283,261.3v25.293a12.529,12.529,0,0,0,2.734,8.37c1.978,2.323,4.865,3.406,9.086,3.406h0c5.725,0,13.125-2.038,20.961-4.2,9.613-2.647,20.507-5.647,31.038-5.647a42.95,42.95,0,0,1,15.689,2.71,69.9,69.9,0,0,0,24.82,4.334c21.1,0,42.76-8.764,43.38-25.515V244.349Z" transform="translate(-98.283 -239.046)" fill="#462820"/>
      </g>
      <g id="Grupo_1108133" data-name="Grupo 1108133" transform="translate(98.285 144.311)">
        <path id="Trazado_898257" data-name="Trazado 898257" d="M106.589,224.193c12.486,14.657,49.486-13.923,77.807-3.01s70.711,1.61,71.586-23.479-30.467-56.949-81.626-46.273S92.805,208.012,106.589,224.193Z" transform="translate(-100.778 -146.811)" fill="#fff"/>
        <path id="Trazado_898258" data-name="Trazado 898258" d="M115.083,228.473h0c-5.715,0-9.93-1.687-12.887-5.16-4.4-5.161-5.11-12.991-2.01-22.049,3.707-10.833,12.556-22.6,24.278-32.293a108.681,108.681,0,0,1,46.891-22.489,99.64,99.64,0,0,1,20.286-2.172c20.469,0,38.562,7.062,50.945,19.885,8.886,9.2,13.772,20.535,13.4,31.1-.327,9.391-5.8,17.3-15.833,22.881-8.721,4.849-20.272,7.52-32.526,7.52a74.835,74.835,0,0,1-26.624-4.676,38.1,38.1,0,0,0-13.912-2.381c-9.859,0-20.413,2.9-29.724,5.467-8.171,2.249-15.888,4.372-22.287,4.372Zm76.558-79.162a94.672,94.672,0,0,0-19.265,2.066c-34.857,7.274-60.772,31.966-67.46,51.506-2.506,7.321-2.12,13.425,1.085,17.188,1.977,2.32,4.862,3.4,9.081,3.4,5.723,0,13.125-2.036,20.96-4.193,9.616-2.646,20.516-5.646,31.051-5.646a42.982,42.982,0,0,1,15.71,2.715,69.8,69.8,0,0,0,24.827,4.342c21.1,0,42.777-8.785,43.362-25.575.322-9.212-4.053-19.217-12-27.448-11.432-11.838-28.247-18.358-47.348-18.358Z" transform="translate(-98.287 -144.311)" fill="#462820"/>
      </g>
      <g id="Grupo_1108134" data-name="Grupo 1108134" transform="translate(163.955 157.609)">
        <path id="Trazado_898259" data-name="Trazado 898259" d="M295.869,183.742c8.984,5.674,15.4,16,13.59,26.234s-8.836,16.29-29.446,16.576c-19.128.265-31.282-2.877-40.434-7.968-10.5-5.841-2.389-17.622,6.9-27.815S269.549,167.118,295.869,183.742Z" transform="translate(-232.132 -173.408)" fill="#e6648d"/>
        <path id="Trazado_898260" data-name="Trazado 898260" d="M275.291,226.568c-16.724,0-29.254-2.637-39.431-8.3-3.491-1.942-5.538-4.62-6.084-7.957-.976-5.964,2.833-13.281,12.35-23.727,6.91-7.585,15.374-15.677,28.389-15.677,7.411,0,15.548,2.766,24.185,8.221,10.659,6.732,16.573,18.3,14.717,28.784-2.264,12.787-11.8,18.361-31.873,18.639q-1.142.015-2.253.016Zm-4.777-50.66c-10.978,0-18.219,6.938-24.693,14.045-3,3.294-12.131,13.315-11.111,19.552.291,1.78,1.462,3.217,3.58,4.395,9.4,5.232,21.161,7.668,37,7.668q1.075,0,2.184-.016c21.54-.3,25.715-7.151,27.019-14.511,1.74-9.824-5.007-18.975-12.464-23.685-7.826-4.943-15.064-7.449-21.516-7.449Z" transform="translate(-229.628 -170.908)" fill="#462820"/>
      </g>
      <g id="Grupo_1108135" data-name="Grupo 1108135" transform="translate(138.498 155.458)">
        <path id="Trazado_898261" data-name="Trazado 898261" d="M190.378,181.746c7.068-5.712,18.438-9.913,27.486-10.138s-3.5,12.066-8.687,18.063c-5.09,5.884-10.835,11.477-17.9,9.416C179.945,195.781,182.8,187.868,190.378,181.746Z" transform="translate(-181.215 -169.106)" fill="#e6648d"/>
        <path id="Trazado_898262" data-name="Trazado 898262" d="M191.761,199.522a13.155,13.155,0,0,1-3.686-.536c-6.683-1.949-8.692-5.387-9.2-7.928-.863-4.3,1.777-9.187,7.432-13.757,7.5-6.057,19.419-10.454,28.995-10.692,3.481-.081,4.839,1.395,5.389,2.635,1.7,3.817-2.715,9.12-9.634,16.774-.917,1.014-1.783,1.971-2.489,2.788-4.815,5.566-10.184,10.716-16.8,10.716ZM215.6,171.605l-.178,0c-8.441.21-19.365,4.241-25.977,9.583-3.956,3.2-6.129,6.6-5.671,8.884.431,2.15,3.338,3.422,5.7,4.112a8.17,8.17,0,0,0,2.286.336c4.354,0,8.355-3.593,13.023-8.988.743-.858,1.626-1.835,2.562-2.87,2.391-2.644,7.723-8.542,8.587-11.05-.1-.006-.206-.01-.33-.01Z" transform="translate(-178.712 -166.606)" fill="#462820"/>
      </g>
      <g id="Grupo_1108136" data-name="Grupo 1108136" transform="translate(109.674 188.899)">
        <path id="Trazado_898263" data-name="Trazado 898263" d="M144.751,238.51c7.229.281,24.167,3.744,22.072,10.789s-30.449,14.943-36.922,12.467C122.413,258.9,125.142,237.748,144.751,238.51Z" transform="translate(-123.565 -235.989)" fill="#e6648d"/>
        <path id="Trazado_898264" data-name="Trazado 898264" d="M130.868,262.229a12.35,12.35,0,0,1-4.359-.629c-4.136-1.581-6.256-6.852-5.154-12.816,1.341-7.262,7.636-15.8,20.993-15.273,5.861.227,19.279,2.534,23.344,8.211a6.472,6.472,0,0,1,1.026,5.788C164.237,255.858,140,262.229,130.868,262.229Zm10.36-23.74c-9.5,0-13.957,5.787-14.957,11.2-.625,3.386.263,6.566,2.022,7.238a7.653,7.653,0,0,0,2.574.3c4.571,0,12.164-1.615,18.895-4.017,8.889-3.174,11.844-6.049,12.164-7.126a1.505,1.505,0,0,0-.3-1.452c-2.415-3.372-13.146-5.881-19.473-6.126C141.84,238.494,141.532,238.489,141.228,238.489Z" transform="translate(-121.065 -233.488)" fill="#462820"/>
      </g>
      <path id="Trazado_898265" data-name="Trazado 898265" d="M123.565,331.383a2.5,2.5,0,0,1-2.5-2.5v-4.948a2.5,2.5,0,0,1,5,0v4.948A2.5,2.5,0,0,1,123.565,331.383Z" transform="translate(-11.391 -88.562)" fill="#462820"/>
    </g>
  </g>
</svg>
