<svg xmlns="http://www.w3.org/2000/svg" xmlns:xlink="http://www.w3.org/1999/xlink" width="86" height="88" viewBox="0 0 86 88">
  <defs>
    <filter id="Rect치ngulo_402727" x="0" y="0" width="86" height="88" filterUnits="userSpaceOnUse">
      <feOffset dy="3" input="SourceAlpha"/>
      <feGaussianBlur stdDeviation="3" result="blur"/>
      <feFlood flood-opacity="0.161"/>
      <feComposite operator="in" in2="blur"/>
      <feComposite in="SourceGraphic"/>
    </filter>
  </defs>
  <g id="Grupo_1108150" data-name="Grupo 1108150" transform="translate(-341.051 -10336)">
    <g transform="matrix(1, 0, 0, 1, 341.05, 10336)" filter="url(#Rect치ngulo_402727)">
      <g id="Rect치ngulo_402727-2" data-name="Rect치ngulo 402727" transform="translate(9 6)" fill="#f5b2a4" stroke="#fff" stroke-width="3">
        <rect width="68" height="70" rx="34" stroke="none"/>
        <rect x="1.5" y="1.5" width="65" height="67" rx="32.5" fill="none"/>
      </g>
    </g>
    <g id="rinon" transform="translate(359.337 10352)">
      <path id="Trazado_898266" data-name="Trazado 898266" d="M22.595,115.41a1.7,1.7,0,0,1,.01-.92,7.355,7.355,0,0,0,0-4.158,1.7,1.7,0,0,1-.01-.92,14.715,14.715,0,0,1,.91-2.456,6.882,6.882,0,0,0-6.192-9.852H17.14a6.882,6.882,0,0,0-5.994,3.509c-3.8,6.754-3.811,16.8-.017,23.563A6.952,6.952,0,0,0,23.5,117.861,14.724,14.724,0,0,1,22.595,115.41Z" transform="translate(-6.848 -87.798)" fill="#e28086"/>
      <path id="Trazado_898267" data-name="Trazado 898267" d="M34.4,196.634a1.2,1.2,0,0,0,1.222-1.215,22.315,22.315,0,0,1,.571-5.364,1.2,1.2,0,0,0-2.339-.551,24.521,24.521,0,0,0-.641,5.935A1.207,1.207,0,0,0,34.4,196.634Z" transform="translate(-29.38 -170.505)" fill="#eab1b7"/>
      <path id="Trazado_898268" data-name="Trazado 898268" d="M61.715,125.765a1.217,1.217,0,0,0-1.654-1.142,4.5,4.5,0,0,0-2.252,1.971l-.071.128a1.2,1.2,0,1,0,2.1,1.155l.06-.107a2.1,2.1,0,0,1,1.062-.925A1.166,1.166,0,0,0,61.715,125.765Z" transform="translate(-51.424 -112.599)" fill="#eab1b7"/>
      <path id="Trazado_898269" data-name="Trazado 898269" d="M339.606,95.41a1.7,1.7,0,0,0-.01-.92,7.355,7.355,0,0,1,0-4.158,1.7,1.7,0,0,0,.01-.92,14.714,14.714,0,0,0-.91-2.456,6.882,6.882,0,0,1,6.192-9.852h.174a6.881,6.881,0,0,1,5.994,3.509c3.8,6.754,3.81,16.8.017,23.563A6.952,6.952,0,0,1,338.7,97.861,14.708,14.708,0,0,0,339.606,95.41Z" transform="translate(-304.978 -69.715)" fill="#e28086"/>
      <g id="Grupo_1108149" data-name="Grupo 1108149" transform="translate(5.46 7.464)">
        <path id="Trazado_898270" data-name="Trazado 898270" d="M60.518,116.069a1.7,1.7,0,0,1,.01-.92,7.355,7.355,0,0,0,0-4.158,1.7,1.7,0,0,1-.01-.92,14.715,14.715,0,0,1,.91-2.456,6.891,6.891,0,0,0-5.195-9.782,6.914,6.914,0,0,1,1.361,7.865,14.724,14.724,0,0,0-.91,2.456,1.7,1.7,0,0,0,.01.92,7.355,7.355,0,0,1,0,4.158,1.7,1.7,0,0,0-.01.92,14.716,14.716,0,0,0,.907,2.45,6.959,6.959,0,0,1-7.36,9.78,6.954,6.954,0,0,0,11.194-7.863A14.716,14.716,0,0,1,60.518,116.069Z" transform="translate(-50.231 -95.92)" fill="#dd636e"/>
        <path id="Trazado_898271" data-name="Trazado 898271" d="M371.01,81.306a6.887,6.887,0,0,0-4.993-3.436,6.9,6.9,0,0,1,1.159,1.519c3.8,6.754,3.81,16.8.017,23.563a6.931,6.931,0,0,1-6.045,3.54,7.131,7.131,0,0,1-1.053-.078,6.954,6.954,0,0,0,10.933-1.545C374.82,98.106,374.815,88.06,371.01,81.306Z" transform="translate(-330.392 -77.87)" fill="#dd636e"/>
        <path id="Trazado_898272" data-name="Trazado 898272" d="M258.209,250.532a10.1,10.1,0,0,1-1.828-1.45.2.2,0,0,0-.344.144v24a.283.283,0,0,0,.283.283h3.331a.283.283,0,0,0,.283-.283V251.385A10.111,10.111,0,0,1,258.209,250.532Z" transform="translate(-236.31 -232.617)" fill="#dd636e"/>
      </g>
      <path id="Trazado_898273" data-name="Trazado 898273" d="M158.943,206.743H157.3q-.177.5-.311,1a1.7,1.7,0,0,0,.01.92q.07.235.124.476h1.815a10.093,10.093,0,0,0,3.6-.661v-2.617A7.7,7.7,0,0,1,158.943,206.743Z" transform="translate(-141.247 -186.128)" fill="#da4a54"/>
      <path id="Trazado_898274" data-name="Trazado 898274" d="M265.39,27.677q.033-.131.071-.261a1.737,1.737,0,0,0,.016-.937q-.159-.6-.382-1.2h-.785a5.844,5.844,0,0,1-3.508-1.158,2.185,2.185,0,0,1-.87-1.752V7.783a.283.283,0,0,0-.283-.283h-3.331a.283.283,0,0,0-.283.283v16.2a7.146,7.146,0,0,0,2.067,5.072,7.622,7.622,0,0,0,1.829,1.344V27a.327.327,0,0,1,.48-.288,8.264,8.264,0,0,0,3.9.968h1.08Z" transform="translate(-230.848 -6.781)" fill="#dd636e"/>
      <path id="Trazado_898275" data-name="Trazado 898275" d="M175.889,32.476a1.736,1.736,0,0,0-.016-.937q-.038-.129-.071-.261h-1.863a7.659,7.659,0,0,1-5.355-2.158,7.152,7.152,0,0,1-2.136-5.14V7.783a.283.283,0,0,0-.283-.283h-3.331a.283.283,0,0,0-.283.283V30.094a2.566,2.566,0,0,1-1.156,2.145,5.852,5.852,0,0,1-3.221.957h-1.08q-.033.131-.071.261a1.736,1.736,0,0,0-.016.937q.159.6.382,1.2h.785a8.3,8.3,0,0,0,3.1-.6.935.935,0,0,1,1.281.87V54.857a.283.283,0,0,0,.283.283h3.331a.283.283,0,0,0,.283-.283v-24a.2.2,0,0,1,.344-.144,10.1,10.1,0,0,0,7.148,2.964h1.567Q175.729,33.072,175.889,32.476Z" transform="translate(-141.26 -6.781)" fill="#4073c8"/>
      <path id="Trazado_898276" data-name="Trazado 898276" d="M26.371,182.57a25.123,25.123,0,0,0-.66,6.11,1.923,1.923,0,1,0,3.846-.039,21.474,21.474,0,0,1,.552-5.19,1.92,1.92,0,0,0-3.738-.881Zm2.125.037a.479.479,0,0,1,.214.515,22.908,22.908,0,0,0-.59,5.538.485.485,0,1,1-.971,0,23.684,23.684,0,0,1,.622-5.76A.482.482,0,0,1,28.5,182.607Z" transform="translate(-22.599 -163.737)"/>
      <path id="Trazado_898277" data-name="Trazado 898277" d="M50.989,122.153a1.919,1.919,0,0,0,2.7-.7l.057-.1a1.388,1.388,0,0,1,.7-.609,1.917,1.917,0,0,0-1.428-3.558A5.238,5.238,0,0,0,50.4,119.47l-.074.133a1.918,1.918,0,0,0,.662,2.55Zm.6-1.855.068-.122a3.8,3.8,0,0,1,1.892-1.656.479.479,0,0,1,.368.885,2.831,2.831,0,0,0-1.426,1.242l-.062.112a.479.479,0,0,1-.841-.46Z" transform="translate(-44.643 -105.829)"/>
      <path id="Trazado_898278" data-name="Trazado 898278" d="M46.7,10.547a7.612,7.612,0,0,0-6.62-3.875H39.91a7.527,7.527,0,0,0-6.387,3.506,7.629,7.629,0,0,0-.455,7.37q.053.113.1.225a5.089,5.089,0,0,1-2.787-1.007A1.471,1.471,0,0,1,29.8,15.59V1a1,1,0,0,0-1-1H25.471a1,1,0,0,0-.283.041A1,1,0,0,0,24.9,0H21.574a1,1,0,0,0-1,1V5.344a.719.719,0,0,0,1.438,0V1.438h2.458V17.2a7.906,7.906,0,0,0,2.354,5.656,8.359,8.359,0,0,0,5.856,2.361h1.288a.99.99,0,0,1-.033.293c-.028.1-.08.3-.2.665H32.679a9.38,9.38,0,0,1-6.639-2.754.921.921,0,0,0-1.571.652V47.64H22.01V29.085a1.654,1.654,0,0,0-2.267-1.537,7.556,7.556,0,0,1-2.83.543H16.64q-.11-.335-.2-.665a.993.993,0,0,1-.033-.293,6.9,6.9,0,0,0,4.122-1.075,3.275,3.275,0,0,0,1.481-2.746V8.7a.719.719,0,0,0-1.438,0V19.283A7.052,7.052,0,0,1,17.7,19.9h-.583q.093-.215.195-.43a7.629,7.629,0,0,0-.455-7.37,7.527,7.527,0,0,0-6.387-3.506h-.174a7.612,7.612,0,0,0-6.62,3.875c-.117.208-.233.423-.344.639a.719.719,0,0,0,1.278.659c.1-.2.21-.4.319-.592a6.172,6.172,0,0,1,5.368-3.143h.174a6.1,6.1,0,0,1,5.173,2.839,6.2,6.2,0,0,1,.368,5.988,16.189,16.189,0,0,0-.743,1.866,3.012,3.012,0,0,0-1.689-.52.719.719,0,1,0,0,1.438,1.579,1.579,0,0,1,1.113.46c.815.815.748,3.135.376,4.407a1.553,1.553,0,0,1-1.489,1.087.719.719,0,1,0,0,1.438,3.011,3.011,0,0,0,1.689-.521,16.181,16.181,0,0,0,.74,1.86,6.131,6.131,0,0,1-.386,5.921,6.237,6.237,0,0,1-10.709-.261C1.9,30.659,1.292,23.086,3.371,16.735A.719.719,0,0,0,2,16.288C-.193,23,.454,31.028,3.654,36.732a7.675,7.675,0,0,0,13.177.328,7.562,7.562,0,0,0,.474-7.3q-.054-.116-.107-.232a8.97,8.97,0,0,0,3.081-.642.2.2,0,0,1,.2.022.213.213,0,0,1,.1.181v18.99a1,1,0,0,0,1,1H24.9a1,1,0,0,0,.283-.041,1,1,0,0,0,.283.041H28.8a1,1,0,0,0,1-1V32.346a.719.719,0,1,0-1.438,0V47.64H25.907V25.23a10.827,10.827,0,0,0,2.458,1.485v2.276a.719.719,0,1,0,1.438,0V27.223a10.817,10.817,0,0,0,2.877.389h.5q-.051.114-.1.227a7.562,7.562,0,0,0,.474,7.3,7.675,7.675,0,0,0,13.177-.328,25.157,25.157,0,0,0,2.933-12.137,25.122,25.122,0,0,0-2.95-12.13ZM19.74,24.857a5.133,5.133,0,0,1-2.827.839H16.7a8.107,8.107,0,0,0,.024-1.965H17.7a10.78,10.78,0,0,0,2.876-.389A1.841,1.841,0,0,1,19.74,24.857ZM17.7,21.334a8.513,8.513,0,0,0,2.877-.5v1.008a9.34,9.34,0,0,1-2.877.452h-1.26a.979.979,0,0,1,.005-.491q.062-.232.135-.467ZM25.907,17.2V1.438h2.458V15.59a2.915,2.915,0,0,0,1.159,2.328,6.531,6.531,0,0,0,3.938,1.3h.274q.11.335.2.665a.992.992,0,0,1,.033.293,7.981,7.981,0,0,1-4.065-.883,1.046,1.046,0,0,0-1.538.923V22.3a6.943,6.943,0,0,1-.54-.473A6.461,6.461,0,0,1,25.907,17.2Zm3.9,5.968V20.844a9.058,9.058,0,0,0,3.659.771h.21a8.113,8.113,0,0,0,0,2.163h-.992a7,7,0,0,1-2.877-.611ZM45.468,34.111a6.237,6.237,0,0,1-10.709.261,6.131,6.131,0,0,1-.386-5.921,16.158,16.158,0,0,0,.74-1.86,3.012,3.012,0,0,0,1.689.52.719.719,0,1,0,0-1.438,1.552,1.552,0,0,1-1.488-1.085l-.005-.017a6.634,6.634,0,0,1,0-3.748v0l0-.015A1.553,1.553,0,0,1,36.8,19.72a.719.719,0,1,0,0-1.438,3.011,3.011,0,0,0-1.689.521,16.188,16.188,0,0,0-.743-1.866,6.2,6.2,0,0,1,.368-5.988A6.1,6.1,0,0,1,39.91,8.11h.174a6.172,6.172,0,0,1,5.368,3.143C49.119,17.763,49.126,27.59,45.468,34.111Z" transform="translate(0)"/>
    </g>
  </g>
</svg>
