<svg xmlns="http://www.w3.org/2000/svg" xmlns:xlink="http://www.w3.org/1999/xlink" width="86" height="88" viewBox="0 0 86 88">
  <defs>
    <filter id="Rect치ngulo_402728" x="0" y="0" width="86" height="88" filterUnits="userSpaceOnUse">
      <feOffset dy="3" input="SourceAlpha"/>
      <feGaussianBlur stdDeviation="3" result="blur"/>
      <feFlood flood-opacity="0.161"/>
      <feComposite operator="in" in2="blur"/>
      <feComposite in="SourceGraphic"/>
    </filter>
  </defs>
  <g id="Grupo_1108151" data-name="Grupo 1108151" transform="translate(-341.051 -10458)">
    <g transform="matrix(1, 0, 0, 1, 341.05, 10458)" filter="url(#Rect치ngulo_402728)">
      <g id="Rect치ngulo_402728-2" data-name="Rect치ngulo 402728" transform="translate(9 6)" fill="#f5b2a4" stroke="#fff" stroke-width="3">
        <rect width="68" height="70" rx="34" stroke="none"/>
        <rect x="1.5" y="1.5" width="65" height="67" rx="32.5" fill="none"/>
      </g>
    </g>
    <g id="lipido" transform="translate(362.051 10477.896)">
      <path id="Trazado_898279" data-name="Trazado 898279" d="M418.13,278.638c-3.775,2.7-2.5,9.474,3.869,9.474a5.692,5.692,0,0,0-3.869-9.474Z" transform="translate(-381.077 -255.14)" fill="#ffac47"/>
      <path id="Trazado_898280" data-name="Trazado 898280" d="M417.478,306.894c-3.609,1.395-3.454,7.326,2.125,5.907A9.052,9.052,0,0,0,417.478,306.894Z" transform="translate(-380.183 -281.023)" fill="#ff964a"/>
      <path id="Trazado_898281" data-name="Trazado 898281" d="M218.44,19.615h1.769a2.175,2.175,0,0,0,1.69-3.543l-6.2-7.66a2.175,2.175,0,0,0-3.382,0l-.609.753c-2.7,5.183-1.984,11.945,3.059,14.866,1.834,1.455,2.551.949,3.668.792Z" transform="translate(-192.512 -6.872)" fill="#ff7a71"/>
      <path id="Trazado_898282" data-name="Trazado 898282" d="M162.366,26.181l-5.587,6.907a2.175,2.175,0,0,0,1.69,3.543h1.769v5.209a5.511,5.511,0,0,0,6.138-1.23A17.64,17.64,0,0,1,162.366,26.181Z" transform="translate(-143.164 -23.887)" fill="#f5625e"/>
      <path id="Trazado_898283" data-name="Trazado 898283" d="M392.963,377.227a22.259,22.259,0,0,0-7,8.758,5.691,5.691,0,1,0,7-8.758Z" transform="translate(-353.543 -345.449)" fill="#ffc73c"/>
      <path id="Trazado_898284" data-name="Trazado 898284" d="M380.689,369.9a5.653,5.653,0,0,0-2.133-.672c-2.531,1.125-5.52,4.14-6,7.5a5.684,5.684,0,0,0,1.125,1.934A9.1,9.1,0,0,0,380.689,369.9Z" transform="translate(-341.269 -338.125)" fill="#ffac47"/>
      <path id="Trazado_898285" data-name="Trazado 898285" d="M350.048,218.3l.369,2.722a3.877,3.877,0,0,0,2.71,3.187l4.816,1.471A6.958,6.958,0,0,0,350.048,218.3Z" transform="translate(-320.648 -199.809)" fill="#ffc73c"/>
      <path id="Trazado_898286" data-name="Trazado 898286" d="M326.641,223.209a9.693,9.693,0,0,0-1.69-4.18,6.907,6.907,0,0,0-2.154.667c-.925,5.872,2.542,8.753,9.307,9.387a6.923,6.923,0,0,0,.741-2.674A9.015,9.015,0,0,0,326.641,223.209Z" transform="translate(-295.551 -200.538)" fill="#ffac47"/>
      <path id="Trazado_898287" data-name="Trazado 898287" d="M12,344.038a6.958,6.958,0,1,0,6.3,12.308C22.908,351.829,18.758,343.98,12,344.038Z" transform="translate(-6.87 -315.047)" fill="#ffc73c"/>
      <path id="Trazado_898288" data-name="Trazado 898288" d="M107.256,406.491c1.466-1.487,1.108-5.222-2.349-6.086a1.911,1.911,0,0,0-2,.566,10.243,10.243,0,0,0,2.791,6.939A6.987,6.987,0,0,0,107.256,406.491Z" transform="translate(-94.263 -366.611)" fill="#ffac47"/>
      <path id="Trazado_898289" data-name="Trazado 898289" d="M305.986,293.648c-4.9,4-4.657,8.537-.6,13.478l-.02.043a6.958,6.958,0,1,0,.624-13.521Z" transform="translate(-276.933 -268.777)" fill="#ffc73c"/>
      <path id="Trazado_898290" data-name="Trazado 898290" d="M291.287,338.125c-1.657-.517-2.639.875-3.217,1.317-.774,4.269.309,7.27,4.019,8.478A10.335,10.335,0,0,0,291.287,338.125Z" transform="translate(-263.66 -309.527)" fill="#ffac47"/>
      <path id="Trazado_898291" data-name="Trazado 898291" d="M202.163,198.286a7.59,7.59,0,0,0-11.192-.326c-.462,2.332,8.742,10.8,11.572,9.766A7.586,7.586,0,0,0,202.163,198.286Z" transform="translate(-174.917 -179.128)" fill="#ffe962"/>
      <path id="Trazado_898292" data-name="Trazado 898292" d="M182.832,228.561l-.943-1.515a9.69,9.69,0,0,0-4.829-3.963,7.6,7.6,0,0,0-1.292,1.79c1.311,5.956,5.108,9.115,11.345,9.528a7.639,7.639,0,0,0,1.52-1.553A10.408,10.408,0,0,0,182.832,228.561Z" transform="translate(-161.005 -204.251)" fill="#ffc73c"/>
      <path id="Trazado_898293" data-name="Trazado 898293" d="M74.227,244.421a7.59,7.59,0,1,0-10.451,10.451C70.879,255.318,74.969,248.593,74.227,244.421Z" transform="translate(-55.133 -220.512)" fill="#ffac47"/>
      <path id="Trazado_898294" data-name="Trazado 898294" d="M102.9,293.974a7.544,7.544,0,0,0,2.171.919c4.009-1.018,8.1-5.954,9.2-9.2a7.551,7.551,0,0,0-.919-2.171A10.337,10.337,0,0,0,102.9,293.974Z" transform="translate(-94.256 -259.614)" fill="#ff964a"/>
      <path id="Trazado_898295" data-name="Trazado 898295" d="M175.239,319.846a8.224,8.224,0,0,0-6.1-7.945c-5.662.693-7.518,4.138-7.518,7.945s2.346,8.067,7.517,7.946A8.225,8.225,0,0,0,175.239,319.846Z" transform="translate(-148.046 -285.61)" fill="#ffe962"/>
      <path id="Trazado_898296" data-name="Trazado 898296" d="M132.2,316.764a8.225,8.225,0,0,1,6.1-7.945,8.222,8.222,0,1,0,0,15.891A8.228,8.228,0,0,1,132.2,316.764Z" transform="translate(-117.212 -282.527)" fill="#ffc73c"/>
      <path id="Trazado_898297" data-name="Trazado 898297" d="M43,29.177a6.333,6.333,0,0,0-5.473-6.263A7.613,7.613,0,0,0,30.356,17.8a7.5,7.5,0,0,0-2.957.6,8.239,8.239,0,0,0-.841-.756V13.373H27.7A2.8,2.8,0,0,0,29.877,8.8L27.65,6.051a.63.63,0,0,0-.979.792L28.9,9.6a1.545,1.545,0,0,1-1.2,2.517h-1.77a.63.63,0,0,0-.63.63v4.084a8.222,8.222,0,0,0-7.594,0V12.743a.63.63,0,0,0-.63-.63H15.3A1.545,1.545,0,0,1,14.1,9.6l6.2-7.66a1.545,1.545,0,0,1,2.4,0l2.12,2.621a.63.63,0,0,0,.98-.792l-2.12-2.621a2.8,2.8,0,0,0-4.361,0l-6.2,7.66a2.8,2.8,0,0,0,2.18,4.568h1.14v4.265a8.3,8.3,0,0,0-1.994,2.253,8.2,8.2,0,0,0-6.739,1.447.63.63,0,1,0,.758,1.007,6.965,6.965,0,0,1,10.667,3.041A8.853,8.853,0,0,0,10.122,34.4a7.017,7.017,0,0,1-4.364-5.5,6.945,6.945,0,0,1,.915-4.559.63.63,0,0,0-1.081-.648,8.211,8.211,0,0,0-1.135,4.9,7.587,7.587,0,1,0,8.57,12.2A8.844,8.844,0,0,0,26.782,38.4a7.572,7.572,0,0,0,4.095.878A6.324,6.324,0,1,0,41.74,32.967,6.31,6.31,0,0,0,43,29.177Zm-1.26,0a5.052,5.052,0,0,1-.876,2.846,6.286,6.286,0,0,0-3.012-1.468,7.54,7.54,0,0,0-.6-2.009,7.555,7.555,0,0,0,.606-4.291A5.073,5.073,0,0,1,41.742,29.177Zm-5.3-5.509a6.309,6.309,0,0,1-.018,3.5,7.556,7.556,0,0,0-6.708-3.018,8.1,8.1,0,0,0-1.476-4.729,6.342,6.342,0,0,1,8.2,4.252ZM15.7,20.276a6.946,6.946,0,0,1,9.818-1.848A7.1,7.1,0,0,1,26.77,19.57a6.961,6.961,0,0,1-.52,9.635,8.841,8.841,0,0,0-5.739-3.687A8.2,8.2,0,0,0,15.7,20.276ZM7.587,41.829A6.327,6.327,0,0,1,4.668,29.888a8.219,8.219,0,0,0,5.585,5.888,8.822,8.822,0,0,0,1.9,4.1A6.3,6.3,0,0,1,7.587,41.829Zm11.384,0a7.593,7.593,0,1,1,7.592-7.592A7.6,7.6,0,0,1,18.971,41.829ZM27.3,37.245a8.838,8.838,0,0,0-.393-6.933,8.128,8.128,0,0,0,2.712-4.888A6.327,6.327,0,1,1,27.3,37.245Zm9.384,4.584a5.061,5.061,0,0,1-4.507-2.756,7.589,7.589,0,0,0,5.768-7.211,5.063,5.063,0,0,1-1.261,9.967Z"/>
    </g>
  </g>
</svg>
