<svg xmlns="http://www.w3.org/2000/svg" width="49.689" height="49.63" viewBox="0 0 49.689 49.63">
  <g id="carne" transform="translate(0 -0.303)">
    <g id="Grupo_1108084" data-name="Grupo 1108084" transform="translate(0.728 1.004)">
      <g id="Grupo_1108083" data-name="Grupo 1108083">
        <circle id="Elipse_11716" data-name="Elipse 11716" cx="4.496" cy="4.496" r="4.496" transform="translate(26.451 25.212)" fill="#f2f2f2"/>
        <path id="Trazado_898121" data-name="Trazado 898121" d="M308.339,267.328a4.479,4.479,0,0,0-1.941.44,4.5,4.5,0,0,1,0,8.114,4.5,4.5,0,1,0,1.941-8.553Z" transform="translate(-277.392 -242.116)" fill="#e6e6e6"/>
        <path id="Trazado_898122" data-name="Trazado 898122" d="M50.406,75.276a30.721,30.721,0,0,1-3.073-5.856,34.167,34.167,0,0,1-2.112-18.01,10.416,10.416,0,0,1,1.924-4.382,5.393,5.393,0,0,1,3.747-2.247c.17-.017.341-.026.51-.026,2.6,0,4.825,2.04,6.975,4.012a25.094,25.094,0,0,0,3.4,2.787c2.132,1.346,6.289,2.491,7.978,2.922a.97.97,0,0,1,.73.95,84.556,84.556,0,0,0,.466,9.876,5.673,5.673,0,0,0-4.271,7.135h0s-6.706,6.081-15.209,3.613A1.938,1.938,0,0,1,50.406,75.276Z" transform="translate(-41.18 -41.143)" fill="#d82e3d"/>
        <path id="Trazado_898123" data-name="Trazado 898123" d="M175.655,363.341c-2.247,1.507-5.62,1.935-8.194,1.935a20.515,20.515,0,0,1-7.042-1.27,23.053,23.053,0,0,1-6.213-3.432.971.971,0,0,1,.576-1.737,19.627,19.627,0,0,0,11.72-4.506,5.681,5.681,0,0,0,6.546,1.164,65.02,65.02,0,0,1,2.988,6.714.973.973,0,0,1-.382,1.132Z" transform="translate(-139.629 -320.676)" fill="#d82e3d"/>
        <g id="Grupo_1108082" data-name="Grupo 1108082" transform="translate(25.977 34.819)">
          <path id="Trazado_898124" data-name="Trazado 898124" d="M285.618,373.038a65.038,65.038,0,0,0-2.988-6.714,5.7,5.7,0,0,1-3.66.437,61.962,61.962,0,0,1,2.766,6.278.973.973,0,0,1-.382,1.132,13.526,13.526,0,0,1-6.166,1.846q.925.087,1.854.089c2.574,0,5.947-.428,8.194-1.935A.973.973,0,0,0,285.618,373.038Z" transform="translate(-275.188 -366.324)" fill="#c10a54"/>
        </g>
        <path id="Trazado_898125" data-name="Trazado 898125" d="M349.779,177.373a15.808,15.808,0,0,1-3.627,5.226.972.972,0,0,1-1.559-.3c-1.41-3.127-2.882-6.5-2.882-6.5a5.672,5.672,0,0,0-.412-7.419,6.161,6.161,0,0,0-2.6-1.558c-.294-3.1-.329-6.787-.323-8.717a.97.97,0,0,1,1.307-.906,17.9,17.9,0,0,1,9.756,8.681A13.73,13.73,0,0,1,349.779,177.373Z" transform="translate(-306.269 -142.621)" fill="#d82e3d"/>
        <path id="Trazado_898126" data-name="Trazado 898126" d="M349.442,165.882a17.9,17.9,0,0,0-9.756-8.681.97.97,0,0,0-1.307.906c0,.094,0,.193,0,.294a17.584,17.584,0,0,1,7.181,7.481,13.73,13.73,0,0,1,.337,11.49,15.89,15.89,0,0,1-1.988,3.4c.226.5.456,1.018.685,1.526a.972.972,0,0,0,1.559.3,15.808,15.808,0,0,0,3.627-5.226A13.731,13.731,0,0,0,349.442,165.882Z" transform="translate(-306.269 -142.62)" fill="#c10a54"/>
        <path id="Trazado_898127" data-name="Trazado 898127" d="M53.933,29.22A20.835,20.835,0,0,0,40.912,18.339c-1.114-.311-2.23-.57-3.309-.82a24.178,24.178,0,0,1-7.568-2.63A22.718,22.718,0,0,1,27.147,12.5c-2.436-2.235-5.2-4.768-9-4.954a8.78,8.78,0,0,0-1.3.033,8.988,8.988,0,0,0-6.241,3.62,14.088,14.088,0,0,0-2.624,5.923c-1.136,5.918-.253,13.591,2.3,20.023,2.326,5.854,7.121,13.574,16.752,17.111a24.144,24.144,0,0,0,7.149,1.464,21.739,21.739,0,0,0,11.9-2.764,19.387,19.387,0,0,0,8.239-9.245A17.291,17.291,0,0,0,53.933,29.22ZM38.6,34.308a2.936,2.936,0,1,1-2.184.822,2.921,2.921,0,0,1,2.184-.822ZM16.73,41.664a30.721,30.721,0,0,1-3.073-5.856A34.167,34.167,0,0,1,11.544,17.8a10.416,10.416,0,0,1,1.924-4.382,5.393,5.393,0,0,1,3.747-2.247c.17-.017.341-.026.51-.026,2.6,0,4.825,2.04,6.975,4.012a25.093,25.093,0,0,0,3.4,2.787c2.132,1.346,6.289,2.491,7.978,2.922a.97.97,0,0,1,.73.95,84.555,84.555,0,0,0,.466,9.876A5.673,5.673,0,0,0,33,38.825h0S26.3,44.9,17.8,42.437a1.938,1.938,0,0,1-1.065-.772Zm26.8,8.532c-2.247,1.507-5.62,1.935-8.194,1.935a20.514,20.514,0,0,1-7.042-1.27,23.053,23.053,0,0,1-6.213-3.432.971.971,0,0,1,.576-1.737,19.627,19.627,0,0,0,11.72-4.506,5.681,5.681,0,0,0,6.546,1.164,65.019,65.019,0,0,1,2.988,6.714A.973.973,0,0,1,43.529,50.2Zm7.484-7.914a15.809,15.809,0,0,1-3.627,5.226.972.972,0,0,1-1.559-.3c-1.41-3.127-2.882-6.5-2.882-6.5a5.672,5.672,0,0,0-.412-7.419,6.161,6.161,0,0,0-2.6-1.558c-.294-3.1-.329-6.787-.323-8.717a.97.97,0,0,1,1.307-.906,17.9,17.9,0,0,1,9.756,8.681,13.731,13.731,0,0,1,.337,11.49Z" transform="translate(-7.504 -7.531)" fill="#ffd8d5"/>
      </g>
    </g>
    <g id="Grupo_1108085" data-name="Grupo 1108085" transform="translate(0 0.303)">
      <path id="Trazado_898128" data-name="Trazado 898128" d="M63.179,46.705c-1.655-.422-5.725-1.542-7.769-2.832-4.488-2.832-10.328-11.106-15.6-4.359a11.157,11.157,0,0,0-2.065,4.693A34.934,34.934,0,0,0,39.9,62.624a31.4,31.4,0,0,0,3.147,5.995,2.669,2.669,0,0,0,1.465,1.064,15.456,15.456,0,0,0,4.319.612A17.209,17.209,0,0,0,55.8,68.768a18.867,18.867,0,0,0,4.567-2.82.728.728,0,0,0,.254-.779,4.945,4.945,0,0,1,3.723-6.22.728.728,0,0,0,.572-.8,84.715,84.715,0,0,1-.46-9.782,1.7,1.7,0,0,0-1.278-1.662Zm-2.26,12.481A6.387,6.387,0,0,0,59.107,65.1,17.392,17.392,0,0,1,48.82,68.841a13.95,13.95,0,0,1-3.9-.556,1.21,1.21,0,0,1-.665-.481h0a29.944,29.944,0,0,1-3-5.717,33.4,33.4,0,0,1-2.074-17.6c.5-2.586,2.192-5.9,5.2-5.978,2.6-.064,4.967,2.1,6.75,3.734A25.6,25.6,0,0,0,54.633,45.1c2.219,1.4,6.464,2.573,8.186,3.011a.242.242,0,0,1,.182.238,90,90,0,0,0,.4,9.34A6.389,6.389,0,0,0,60.919,59.186Z" transform="translate(-33.695 -33.376)" fill="#060606"/>
      <path id="Trazado_898129" data-name="Trazado 898129" d="M47.814,22.378A21.573,21.573,0,0,0,34.333,11.111c-1.131-.316-2.254-.576-3.341-.828a23.665,23.665,0,0,1-7.344-2.537C20.255,5.606,18.033,2.1,14.066.795a9.71,9.71,0,0,0-10.8,3.425A14.538,14.538,0,0,0,.753,9.36a.728.728,0,0,0,1.406.378A13.072,13.072,0,0,1,4.413,5.115a8.227,8.227,0,0,1,9.42-2.853c3.678,1.318,5.838,4.7,9.037,6.715A24.705,24.705,0,0,0,30.663,11.7c1.071.248,2.178.5,3.278.812A20.1,20.1,0,0,1,46.5,23.008a16.573,16.573,0,0,1,.393,13.885,18.664,18.664,0,0,1-7.932,8.9,22.086,22.086,0,0,1-18.441,1.249C11.143,43.6,6.467,36.061,4.2,30.345A39.082,39.082,0,0,1,1.518,14.059a.728.728,0,0,0-1.453-.091A40.587,40.587,0,0,0,2.842,30.882c2.381,5.992,7.294,13.9,17.177,17.526a23.546,23.546,0,0,0,19.666-1.352,20.109,20.109,0,0,0,8.546-9.589,18.009,18.009,0,0,0-.418-15.089Z" transform="translate(0 -0.303)" fill="#060606"/>
      <path id="Trazado_898130" data-name="Trazado 898130" d="M166.1,348.37a4.944,4.944,0,0,1-5.707-1.014.87.87,0,0,0-1.142.063,18.551,18.551,0,0,1-11.119,4.222,1.71,1.71,0,0,0-1,3.04,23.87,23.87,0,0,0,6.408,3.54,21.1,21.1,0,0,0,7.293,1.315c4.811,0,7.453-1.29,8.6-2.058a1.7,1.7,0,0,0,.663-1.979,64.893,64.893,0,0,0-3.028-6.806A.728.728,0,0,0,166.1,348.37Zm2.517,7.9c-2.438,1.635-6.259,1.812-7.788,1.812a19.921,19.921,0,0,1-6.791-1.225,22.418,22.418,0,0,1-6.018-3.324q-.235-.319.148-.434a19.967,19.967,0,0,0,11.662-4.278,6.4,6.4,0,0,0,6.242,1.138,60.57,60.57,0,0,1,2.647,6.027A.246.246,0,0,1,168.619,356.267Z" transform="translate(-132.271 -313.505)" fill="#060606"/>
      <path id="Trazado_898131" data-name="Trazado 898131" d="M289.789,276.946a3.662,3.662,0,0,0,2.365,6.292c.062,0,.124,0,.186,0a3.663,3.663,0,1,0-2.551-6.3Zm4.75,2.668a2.2,2.2,0,1,1-2.207-2.243l.112,0h0a2.2,2.2,0,0,1,2.1,2.24Z" transform="translate(-260.655 -249.169)" fill="#060606"/>
      <path id="Trazado_898132" data-name="Trazado 898132" d="M338.378,176.8a1.8,1.8,0,0,0,1.5-.44,16.492,16.492,0,0,0,3.794-5.466,14.449,14.449,0,0,0-.349-12.092,18.549,18.549,0,0,0-10.159-9.05,1.7,1.7,0,0,0-2.288,1.586c-.006,1.94.03,5.661.327,8.788a.728.728,0,0,0,.509.626,5.656,5.656,0,0,1,1.851.969.728.728,0,0,0,.912-1.135,7.03,7.03,0,0,0-1.864-1.062c-.253-2.964-.283-6.365-.278-8.183a.242.242,0,0,1,.326-.226,17.062,17.062,0,0,1,9.352,8.313,13.012,13.012,0,0,1,.325,10.889,15.046,15.046,0,0,1-3.46,4.987.244.244,0,0,1-.393-.073c-1.118-2.479-2.287-5.14-2.712-6.109a6.362,6.362,0,0,0,.893-5.1.728.728,0,0,0-1.413.35,4.916,4.916,0,0,1-.889,4.219.728.728,0,0,0-.092.738c.015.034,1.49,3.41,2.886,6.5A1.7,1.7,0,0,0,338.378,176.8Z" transform="translate(-298.768 -135.156)" fill="#060606"/>
    </g>
  </g>
</svg>
