<svg xmlns="http://www.w3.org/2000/svg" xmlns:xlink="http://www.w3.org/1999/xlink" width="103" height="103" viewBox="0 0 103 103">
  <defs>
    <filter id="Elipse_11713" x="0" y="0" width="103" height="103" filterUnits="userSpaceOnUse">
      <feOffset dy="3" input="SourceAlpha"/>
      <feGaussianBlur stdDeviation="3" result="blur"/>
      <feFlood flood-opacity="0.161"/>
      <feComposite operator="in" in2="blur"/>
      <feComposite in="SourceGraphic"/>
    </filter>
  </defs>
  <g id="Grupo_1108160" data-name="Grupo 1108160" transform="translate(-171.051 -390)">
    <g transform="matrix(1, 0, 0, 1, 171.05, 390)" filter="url(#Elipse_11713)">
      <g id="Elipse_11713-2" data-name="Elipse 11713" transform="translate(9 6)" fill="#f5b2a4" stroke="#fff" stroke-width="3">
        <circle cx="42.5" cy="42.5" r="42.5" stroke="none"/>
        <circle cx="42.5" cy="42.5" r="41" fill="none"/>
      </g>
    </g>
    <g id="trabajar" transform="translate(176.463 364.947)">
      <g id="XMLID_6_" transform="translate(17.588 49.053)">
        <path id="Trazado_898676" data-name="Trazado 898676" d="M87.858,405.821a2.276,2.276,0,0,1-2.272,2.3H37.931a2.3,2.3,0,0,1-2.3-2.3v-2.646H87.858Z" transform="translate(-33.494 -361.213)" fill="#fe7058"/>
        <path id="Trazado_898677" data-name="Trazado 898677" d="M296.045,206.491a1.072,1.072,0,0,1,1.069,1.069,1.055,1.055,0,0,1-1.069,1.069H278.271a1.055,1.055,0,0,1-1.069-1.069,1.072,1.072,0,0,1,1.069-1.069Z" transform="translate(-246.438 -187.835)"/>
        <path id="Trazado_898678" data-name="Trazado 898678" d="M296.045,267.842a1.072,1.072,0,0,1,1.069,1.069,1.055,1.055,0,0,1-1.069,1.069H278.271a1.055,1.055,0,0,1-1.069-1.069,1.072,1.072,0,0,1,1.069-1.069Z" transform="translate(-246.438 -241.916)"/>
        <path id="Trazado_898679" data-name="Trazado 898679" d="M296.045,326.035a1.069,1.069,0,0,1,0,2.138H278.271a1.069,1.069,0,0,1,0-2.138Z" transform="translate(-246.438 -293.213)"/>
        <path id="Trazado_898680" data-name="Trazado 898680" d="M245.463,81.235a1.43,1.43,0,0,1,0-2.86,1.43,1.43,0,0,1,0,2.86Z" transform="translate(-217.211 -74.9)"/>
        <path id="Trazado_898681" data-name="Trazado 898681" d="M245.463,115.141a1.43,1.43,0,1,1-1.417,1.443A1.432,1.432,0,0,1,245.463,115.141Z" transform="translate(-217.211 -107.31)"/>
        <path id="Trazado_898682" data-name="Trazado 898682" d="M237.069,70.01v6.869h-5.88V70.01a2.94,2.94,0,0,1,5.88,0Zm-4.357,4.223a1.426,1.426,0,0,0,1.417,1.417,1.43,1.43,0,0,0,0-2.86A1.432,1.432,0,0,0,232.713,74.233Zm0-4.383a1.432,1.432,0,0,0,1.417,1.443,1.43,1.43,0,1,0-1.417-1.443Z" transform="translate(-205.878 -64.959)" fill="#e6e9ee"/>
        <path id="Trazado_898683" data-name="Trazado 898683" d="M97.68,309.38H85.706a6.085,6.085,0,0,1,11.974,0Z" transform="translate(-77.634 -274.126)" fill="#314a5e"/>
        <path id="Trazado_898684" data-name="Trazado 898684" d="M114.359,209.862a2.927,2.927,0,1,1,2.94-2.913A2.926,2.926,0,0,1,114.359,209.862Z" transform="translate(-100.3 -185.647)" fill="#fab57c"/>
        <path id="Trazado_898685" data-name="Trazado 898685" d="M82.127,295.612h-14.3a1.055,1.055,0,0,1-1.069-1.069,8.219,8.219,0,0,1,16.438,0A1.055,1.055,0,0,1,82.127,295.612ZM69,293.473H80.978a6.085,6.085,0,0,0-11.974,0Z" transform="translate(-60.932 -258.22)"/>
        <path id="Trazado_898686" data-name="Trazado 898686" d="M93.374,191.043a5.065,5.065,0,1,1,5.078,5.052A5.076,5.076,0,0,1,93.374,191.043Zm5.078-2.94a2.927,2.927,0,1,0,2.94,2.94A2.932,2.932,0,0,0,98.452,188.1Z" transform="translate(-84.394 -169.741)"/>
        <path id="Trazado_898687" data-name="Trazado 898687" d="M47.553,181.754a8.23,8.23,0,0,0-8.232,8.205,1.055,1.055,0,0,0,1.069,1.069h14.3a1.055,1.055,0,0,0,1.069-1.069,8.224,8.224,0,0,0-8.205-8.205Zm0-1.764a5.065,5.065,0,1,0-5.078-5.052A5.065,5.065,0,0,0,47.553,179.99Zm17.774,6.468a1.069,1.069,0,1,0,0,2.138H83.1a1.069,1.069,0,1,0,0-2.138ZM37.931,167.7H85.586a2.27,2.27,0,0,1,2.272,2.272V193.46H35.632V169.967A2.293,2.293,0,0,1,37.931,167.7ZM83.1,174.43a1.055,1.055,0,0,0,1.069-1.069,1.072,1.072,0,0,0-1.069-1.069H65.326a1.072,1.072,0,0,0-1.069,1.069,1.055,1.055,0,0,0,1.069,1.069Zm0,7.27a1.055,1.055,0,0,0,1.069-1.069,1.072,1.072,0,0,0-1.069-1.069H65.326a1.072,1.072,0,0,0-1.069,1.069,1.055,1.055,0,0,0,1.069,1.069Z" transform="translate(-33.494 -153.636)" fill="#85daff"/>
        <path id="Trazado_898688" data-name="Trazado 898688" d="M19.726,91.015v2.646a2.3,2.3,0,0,0,2.3,2.3H69.68a2.276,2.276,0,0,0,2.272-2.3V91.015Zm49.954-27.9H22.025a2.293,2.293,0,0,0-2.3,2.272V88.877H71.952V65.384a2.27,2.27,0,0,0-2.272-2.272ZM40.761,54.1a5.078,5.078,0,0,1,10.157,0v6.869H69.68a4.414,4.414,0,0,1,4.41,4.41V93.662A4.42,4.42,0,0,1,69.68,98.1H22.025a4.443,4.443,0,0,1-4.437-4.437V65.384a4.437,4.437,0,0,1,4.437-4.41H40.761Zm2.138,0v6.869h5.88V54.1a2.94,2.94,0,0,0-5.88,0Z" transform="translate(-17.588 -49.053)"/>
      </g>
    </g>
  </g>
</svg>
